<?xml version="1.0" encoding="UTF-8" standalone="no"?>
<!-- Created with Inkscape (http://www.inkscape.org/) -->

<svg
   width="210mm"
   height="297mm"
   viewBox="0 0 210 297"
   version="1.1"
   id="svg1"
   xml:space="preserve"
   inkscape:version="1.3 (0e150ed6c4, 2023-07-21)"
   sodipodi:docname="doctor_index.svg"
   inkscape:export-filename="doctor_index.png"
   inkscape:export-xdpi="96"
   inkscape:export-ydpi="96"
   xmlns:inkscape="http://www.inkscape.org/namespaces/inkscape"
   xmlns:sodipodi="http://sodipodi.sourceforge.net/DTD/sodipodi-0.dtd"
   xmlns="http://www.w3.org/2000/svg"
   xmlns:svg="http://www.w3.org/2000/svg"><sodipodi:namedview
     id="namedview1"
     pagecolor="#505050"
     bordercolor="#eeeeee"
     borderopacity="1"
     inkscape:showpageshadow="0"
     inkscape:pageopacity="0"
     inkscape:pagecheckerboard="0"
     inkscape:deskcolor="#505050"
     inkscape:document-units="mm"
     inkscape:zoom="0.94615212"
     inkscape:cx="201.34183"
     inkscape:cy="586.05798"
     inkscape:window-width="1920"
     inkscape:window-height="986"
     inkscape:window-x="-11"
     inkscape:window-y="-11"
     inkscape:window-maximized="1"
     inkscape:current-layer="layer1" /><defs
     id="defs1" /><g
     inkscape:label="Layer 1"
     inkscape:groupmode="layer"
     id="layer1"><g
       id="g28"
       transform="rotate(0.22892285,105.00486,148.11605)"><path
         style="fill:#87cdde;stroke:none;stroke-width:0.14947"
         d="m 63.433048,154.50168 c -0.112225,-0.0993 -0.651971,-0.26091 -1.199439,-0.35919 -0.547465,-0.0983 -1.489085,-0.29559 -2.092491,-0.43843 -0.603405,-0.14285 -1.590654,-0.37258 -2.19389,-0.5105 -0.603236,-0.13793 -1.635604,-0.38523 -2.294156,-0.54956 -0.65855,-0.16433 -1.511143,-0.36175 -1.894649,-0.43871 -0.383505,-0.077 -1.235906,-0.26879 -1.894222,-0.42629 -0.658315,-0.15751 -1.645104,-0.37371 -2.192858,-0.48044 -0.547757,-0.10675 -1.095496,-0.25385 -1.217202,-0.32689 -0.121703,-0.0731 -0.615032,-0.17924 -1.096282,-0.23598 -0.481253,-0.0567 -0.966222,-0.16683 -1.077711,-0.24467 -0.11149,-0.0778 -0.573738,-0.18968 -1.027221,-0.24854 l -0.824513,-0.10702 0.04192,-1.12508 c 0.02306,-0.6188 0.03673,-9.36053 0.03037,-19.42606 -0.0063,-10.06554 0.02126,-18.33973 0.06135,-18.3871 0.0709,-0.0838 113.972306,-0.0755 118.659786,0.009 l 2.34906,0.0422 -0.0635,1.50456 c -0.0349,0.8275 -0.0563,8.87185 -0.0474,17.87631 l 0.0161,16.37176 -0.73467,0.0252 c -0.40407,0.0138 -0.78519,-0.0506 -0.84693,-0.14324 -0.0617,-0.0926 -0.53812,-0.20041 -1.05862,-0.23951 -1.4707,-0.11046 -3.88445,-0.43985 -4.32768,-0.59056 -0.2202,-0.0749 -1.07115,-0.22419 -1.89098,-0.3318 -1.83125,-0.24036 -2.79539,-0.38089 -4.97117,-0.72457 -1.73168,-0.27354 -2.51409,-0.3904 -4.77292,-0.71291 -1.39596,-0.19931 -1.8633,-0.39016 -10.35269,-4.2277 -3.10512,-1.40364 -5.74122,-2.5488 -5.85799,-2.54479 -0.11677,0.004 -0.24425,-0.0584 -0.28327,-0.13868 -0.039,-0.0803 -1.1666,-0.63379 -2.50571,-1.23004 -2.73552,-1.21803 -2.79603,-1.2203 -4.86071,-0.18258 -0.67891,0.34121 -2.00304,0.97551 -2.94253,1.40955 -0.93949,0.43404 -1.94656,0.92412 -2.23795,1.08907 -0.29138,0.16496 -0.60207,0.30295 -0.6904,0.30665 -0.0883,0.004 -0.61462,0.23479 -1.1695,0.51353 -0.55489,0.27874 -1.62217,0.797 -2.37174,1.15168 -0.74957,0.35468 -1.86893,0.89286 -2.48746,1.19595 -0.61854,0.30309 -1.17894,0.55293 -1.24533,0.55521 -0.12157,0.004 -0.58462,0.23211 -3.07998,1.51613 -1.65387,0.85103 -1.74242,0.85511 -7.704083,0.35473 -2.510062,-0.21068 -5.322725,-0.44694 -6.250367,-0.52503 -3.686135,-0.3103 -4.930229,-0.39731 -6.564467,-0.45908 l -1.703538,-0.0644 -2.309445,1.31782 c -1.270195,0.7248 -2.963634,1.71326 -3.763197,2.19658 -0.799563,0.48332 -1.58511,0.94272 -1.745657,1.02089 -0.160547,0.0782 -0.814884,0.46924 -1.454084,0.86904 -0.6392,0.39981 -1.356845,0.82176 -1.594766,0.93765 -0.237922,0.1159 -1.110744,0.62654 -1.939604,1.13475 -0.828859,0.50822 -2.555015,1.51895 -3.8359,2.24608 -1.280888,0.72712 -2.381664,1.40903 -2.446172,1.51535 -0.164476,0.2711 -1.796299,0.47878 -2.043538,0.26008 z"
         id="path1" /><g
         id="g27"><path
           style="fill:#87cdde;stroke:none;stroke-width:0.14947"
           d="m 161.01712,185.06772 c -0.0467,-0.0388 -2.35457,-0.0515 -5.12864,-0.028 -2.77408,0.0235 -5.89009,0.0283 -6.92448,0.0106 -1.03439,-0.0176 -7.08902,-0.0275 -13.45473,-0.0218 -6.36572,0.006 -12.82068,0.005 -14.34436,-0.002 -2.69803,-0.0117 -10.82722,-0.0137 -17.21337,-0.006 -1.74102,0.002 -4.145174,-0.005 -5.342558,-0.0157 -1.197383,-0.0109 -3.779393,-0.0113 -5.73779,-0.002 -1.958396,0.01 -4.629417,0.01 -5.93559,-6.7e-4 -1.306185,-0.01 -7.494222,-0.0161 -13.751215,-0.0135 -6.256993,0.003 -12.756513,0.001 -14.44338,-0.004 -1.686857,-0.005 -5.546799,-0.004 -8.577639,0.004 -3.030839,0.007 -5.54203,-0.0169 -5.580422,-0.0528 -0.0384,-0.0358 -0.0607,-7.40818 -0.04956,-16.38296 0.01115,-8.97477 0.0013,-16.90872 -0.02194,-17.63099 l -0.04219,-1.31323 0.647601,0.13354 c 0.356183,0.0734 1.186251,0.26317 1.844601,0.42159 0.658346,0.15844 2.228989,0.5244 3.490315,0.81325 1.261318,0.28885 2.742097,0.63039 3.290598,0.75896 0.991716,0.23247 2.337744,0.54417 4.33775,1.00451 0.575848,0.13255 1.585808,0.37544 2.244356,0.53977 0.658559,0.16433 1.511157,0.36213 1.894679,0.43955 0.383522,0.0774 1.110246,0.23212 1.614937,0.34378 l 0.917615,0.20301 2.597254,-1.55792 c 1.42849,-0.85686 2.815905,-1.67259 3.083142,-1.81273 0.267236,-0.14015 0.616382,-0.34409 0.77587,-0.4532 0.562348,-0.38476 5.977545,-3.58082 6.072608,-3.58408 0.053,-0.002 1.609853,-0.91139 3.45971,-2.02128 1.849867,-1.10989 3.55937,-2.10061 3.798902,-2.20159 0.406926,-0.17156 1.468541,-0.13053 5.748704,0.22216 0.900294,0.0742 2.373431,0.19296 3.273617,0.26393 1.968945,0.15522 4.830318,0.39343 6.994285,0.58225 0.87316,0.0762 2.30686,0.16573 3.18599,0.19895 1.68843,0.0639 1.86253,0.007 5.2701,-1.70233 0.42791,-0.21471 1.52287,-0.73831 2.43325,-1.16353 0.91037,-0.42522 2.01477,-0.95816 2.4542,-1.18431 0.43944,-0.22614 0.86154,-0.41331 0.93799,-0.41594 0.0765,-0.003 0.59284,-0.23804 1.1475,-0.52315 0.55467,-0.2851 1.66578,-0.8234 2.46913,-1.19619 0.80336,-0.37279 1.89841,-0.89401 2.43344,-1.15824 0.53502,-0.26424 1.73728,-0.8336 2.67168,-1.26523 l 1.6989,-0.7848 5.68246,2.55747 c 3.12534,1.40661 7.66639,3.45322 10.09123,4.54803 2.42483,1.09481 4.77224,2.0433 5.21646,2.10773 1.32008,0.19149 4.32104,0.64513 5.28275,0.79857 0.49237,0.0786 1.70056,0.26005 2.68484,0.40331 0.98428,0.14326 2.14768,0.31688 2.58532,0.38582 0.43764,0.069 1.4219,0.21158 2.18725,0.31698 0.76535,0.1054 1.70546,0.25855 2.08913,0.34033 0.38367,0.0817 1.52529,0.26949 2.53693,0.41715 l 1.83935,0.26846 0.0439,1.30944 c 0.0241,0.72021 0.0357,8.83309 0.0258,18.02863 -0.01,9.19554 -6.6e-4,17.23053 0.0199,17.85552 l 0.038,1.13634 -2.2397,0.0768 c -1.23183,0.0422 -2.27787,0.045 -2.32455,0.007 z"
           id="path2" /></g></g><path
       style="fill:#87cdde;stroke:#000000;stroke-width:0.564926"
       d=""
       id="path3"
       transform="scale(0.26458333)" /><path
       style="fill:#87cdde;stroke:#000000;stroke-width:0.564926"
       d=""
       id="path4"
       transform="scale(0.26458333)" /><path
       style="fill:#87cdde;stroke:#000000;stroke-width:0.282463"
       d=""
       id="path5"
       transform="scale(0.26458333)" /><g
       id="g8"
       transform="matrix(1.049297,0,0,1.049297,-12.95529,-63.165262)"
       style="fill:#5fbcd3"><path
         style="fill:#5fbcd3;stroke:none;stroke-width:0.105691"
         d="m 94.545722,232.78758 c -3.052794,-0.21974 -5.714286,-0.89235 -7.157775,-1.80891 -1.333027,-0.84642 -2.307789,-2.18856 -2.89038,-3.97974 -0.302408,-0.92975 -0.375187,-1.46245 -0.43116,-3.1558 -0.08598,-2.60131 0.170207,-4.29057 1.043911,-6.88338 0.981406,-2.91242 2.441959,-5.18388 4.719434,-7.3397 0.994849,-0.94171 3.822506,-3.03926 3.939471,-2.9223 0.02156,0.0216 -0.05408,0.43898 -0.168077,0.92762 -0.11399,0.48864 -0.268991,1.48378 -0.344445,2.21143 -0.119015,1.14775 -0.182322,1.3585 -0.477933,1.59102 -0.187412,0.14742 -0.375475,0.3765 -0.41792,0.50907 -0.04244,0.13258 -0.360092,0.41943 -0.705887,0.63745 -1.434766,0.90463 -3.409024,3.70678 -3.506128,4.9764 -0.02103,0.27482 -0.184515,1.12886 -0.363324,1.89787 -0.263167,1.13182 -0.325347,1.79779 -0.326379,3.49552 -0.0011,1.91678 0.02684,2.15439 0.325324,2.76048 0.375364,0.7622 0.745484,1.0521 1.888021,1.47879 1.023993,0.38243 2.58449,0.4179 3.169947,0.0721 0.806908,-0.47665 0.945163,-1.58314 0.289473,-2.31668 -0.407353,-0.45572 -0.41084,-0.45662 -1.753878,-0.45662 -1.610358,0 -1.549953,0.0904 -1.435079,-2.14783 0.08458,-1.64806 0.483862,-3.17155 0.939204,-3.58363 0.154721,-0.14002 0.513226,-0.66946 0.796679,-1.17654 0.675336,-1.20813 1.803943,-2.34043 2.454421,-2.46246 0.897628,-0.1684 2.179603,0.83341 2.956803,2.31061 0.222213,0.42235 0.559636,0.93606 0.749827,1.14158 0.190193,0.20551 0.469035,0.80324 0.619649,1.32829 0.280455,0.97768 0.498948,3.66232 0.347252,4.26673 -0.08021,0.31957 -0.130283,0.33415 -0.965073,0.28099 -1.744057,-0.11105 -2.524839,0.37006 -2.508848,1.54593 0.0065,0.48077 0.08984,0.66674 0.438142,0.97814 0.395571,0.35367 0.52242,0.38446 1.581383,0.38386 0.87974,-5.3e-4 1.332712,-0.0759 1.92033,-0.31969 1.716403,-0.71209 1.936313,-1.08154 2.055573,-3.45341 0.0905,-1.80088 -0.0733,-3.21531 -0.55092,-4.75531 -0.15502,-0.49986 -0.29853,-1.20727 -0.3189,-1.57203 -0.0284,-0.50879 -0.19304,-0.91569 -0.707082,-1.74776 -0.752306,-1.21775 -2.280997,-2.81603 -2.964003,-3.09894 -0.247996,-0.10272 -0.450903,-0.23987 -0.450903,-0.30477 0,-0.0649 -0.188759,-0.33297 -0.419462,-0.59573 -0.491818,-0.56015 -0.529365,-1.03028 -0.213945,-2.67884 0.335547,-1.75375 1.225058,-3.37563 2.028672,-3.69896 0.451553,-0.18168 2.298483,-0.56469 2.723023,-0.56469 0.25724,0 0.34299,0.0967 0.41198,0.46446 0.22712,1.21059 2.60621,4.01332 5.64587,6.6512 2.61954,2.27327 5.66704,4.76192 5.83333,4.7636 0.27013,0.003 4.04786,-3.14809 6.26506,-5.22538 1.23246,-1.15469 2.68648,-2.62138 3.23117,-3.25932 1.00027,-1.17154 2.03282,-2.83923 2.03681,-3.28969 0.003,-0.28587 0.1978,-0.30008 1.33974,-0.0975 1.39223,0.24696 1.65487,0.37782 2.20433,1.09832 0.69083,0.90587 1.18098,2.15097 1.50523,3.82365 0.14633,0.75489 0.26606,1.42458 0.26606,1.4882 0,0.0636 -0.40634,0.31571 -0.90297,0.5602 -0.98482,0.48483 -1.68814,1.19905 -2.19735,2.23142 -0.44992,0.91217 -0.46141,2.86671 -0.0224,3.81875 0.40656,0.88176 1.35129,1.87788 2.20832,2.32845 0.62514,0.32865 0.86261,0.37066 2.10292,0.37199 1.64494,0.002 2.33752,-0.26078 3.34466,-1.26792 0.92653,-0.92653 1.25885,-1.71843 1.31557,-3.13493 0.0861,-2.15095 -0.71107,-3.51815 -2.57379,-4.41408 l -1.03778,-0.49916 -0.002,-0.65439 c -0.002,-0.57785 -0.36702,-2.57402 -0.64183,-3.50628 l -0.0988,-0.33512 0.70149,0.3818 c 2.09883,1.14232 4.8133,3.63124 6.16619,5.65384 2.35053,3.51408 3.34569,6.94375 3.20738,11.0537 -0.10131,3.01074 -0.65119,4.55205 -2.2237,6.23306 -1.35199,1.44529 -3.18744,2.21615 -6.37282,2.6765 -1.20896,0.17472 -3.82972,0.23968 -13.31995,0.33018 -14.53127,0.13858 -22.228,0.13362 -24.301883,-0.0157 z"
         id="path6" /><path
         style="fill:#5fbcd3;stroke:none;stroke-width:0.105691"
         d="m 109.89908,206.32417 c -1.93138,-0.58174 -3.4536,-1.51764 -5.40373,-3.32235 -1.89011,-1.74916 -2.76649,-2.90474 -4.28102,-5.64488 -1.559494,-2.8215 -2.942706,-6.65553 -3.404928,-9.4379 -0.325419,-1.95887 -0.197234,-4.94608 0.287353,-6.69647 0.914461,-3.30314 3.156825,-6.66545 5.719025,-8.57539 1.37924,-1.02812 3.81109,-2.22338 5.33554,-2.62243 3.75859,-0.98385 7.31625,-0.6049 11.04584,1.1766 1.81377,0.86637 2.85489,1.62434 4.27992,3.1159 1.80768,1.89208 3.20294,4.37098 3.93018,6.98257 0.26447,0.94975 0.30538,1.45143 0.30605,3.75289 8e-4,2.42116 -0.034,2.80478 -0.39121,4.32862 -1.15024,4.90636 -3.79608,10.06174 -6.7028,13.06036 -1.96924,2.03149 -4.14963,3.45118 -6.04484,3.93589 -1.49821,0.38317 -3.29403,0.36266 -4.67538,-0.0534 z"
         id="path7" /><path
         style="fill:#5fbcd3;stroke:none;stroke-width:0.105691"
         d="m 129.62396,217.38721 c -1.05355,-0.55713 -1.43233,-1.77337 -0.84984,-2.72874 0.80401,-1.31868 2.50378,-1.30459 3.29805,0.0274 0.50099,0.84014 0.17829,2.24446 -0.60811,2.64627 -0.75111,0.38379 -1.19351,0.39704 -1.8401,0.0551 z"
         id="path8" /></g></g></svg>
