<?xml version="1.0" encoding="UTF-8" standalone="no"?>
<!-- Created with Inkscape (http://www.inkscape.org/) -->

<svg
   width="210mm"
   height="297mm"
   viewBox="0 0 210 297"
   version="1.1"
   id="svg1"
   xml:space="preserve"
   inkscape:version="1.3 (0e150ed6c4, 2023-07-21)"
   sodipodi:docname="estadocuenta_index.svg"
   inkscape:export-filename="estadocuenta_index.png"
   inkscape:export-xdpi="96"
   inkscape:export-ydpi="96"
   xmlns:inkscape="http://www.inkscape.org/namespaces/inkscape"
   xmlns:sodipodi="http://sodipodi.sourceforge.net/DTD/sodipodi-0.dtd"
   xmlns="http://www.w3.org/2000/svg"
   xmlns:svg="http://www.w3.org/2000/svg"><sodipodi:namedview
     id="namedview1"
     pagecolor="#505050"
     bordercolor="#eeeeee"
     borderopacity="1"
     inkscape:showpageshadow="0"
     inkscape:pageopacity="0"
     inkscape:pagecheckerboard="0"
     inkscape:deskcolor="#505050"
     inkscape:document-units="mm"
     inkscape:zoom="0.95387838"
     inkscape:cx="201.28352"
     inkscape:cy="586.55276"
     inkscape:window-width="1920"
     inkscape:window-height="986"
     inkscape:window-x="-11"
     inkscape:window-y="-11"
     inkscape:window-maximized="1"
     inkscape:current-layer="layer1" /><defs
     id="defs1" /><g
     inkscape:label="Layer 1"
     inkscape:groupmode="layer"
     id="layer1"><g
       id="g28"
       transform="rotate(0.22892285,244.95245,131.6391)"
       style="fill:#bcd35f"><path
         style="fill:#bcd35f;stroke:none;stroke-width:0.14947"
         d="m 63.433048,154.50168 c -0.112225,-0.0993 -0.651971,-0.26091 -1.199439,-0.35919 -0.547465,-0.0983 -1.489085,-0.29559 -2.092491,-0.43843 -0.603405,-0.14285 -1.590654,-0.37258 -2.19389,-0.5105 -0.603236,-0.13793 -1.635604,-0.38523 -2.294156,-0.54956 -0.65855,-0.16433 -1.511143,-0.36175 -1.894649,-0.43871 -0.383505,-0.077 -1.235906,-0.26879 -1.894222,-0.42629 -0.658315,-0.15751 -1.645104,-0.37371 -2.192858,-0.48044 -0.547757,-0.10675 -1.095496,-0.25385 -1.217202,-0.32689 -0.121703,-0.0731 -0.615032,-0.17924 -1.096282,-0.23598 -0.481253,-0.0567 -0.966222,-0.16683 -1.077711,-0.24467 -0.11149,-0.0778 -0.573738,-0.18968 -1.027221,-0.24854 l -0.824513,-0.10702 0.04192,-1.12508 c 0.02306,-0.6188 0.03673,-9.36053 0.03037,-19.42606 -0.0063,-10.06554 0.02126,-18.33973 0.06135,-18.3871 0.0709,-0.0838 113.972306,-0.0755 118.659786,0.009 l 2.34906,0.0422 -0.0635,1.50456 c -0.0349,0.8275 -0.0563,8.87185 -0.0474,17.87631 l 0.0161,16.37176 -0.73467,0.0252 c -0.40407,0.0138 -0.78519,-0.0506 -0.84693,-0.14324 -0.0617,-0.0926 -0.53812,-0.20041 -1.05862,-0.23951 -1.4707,-0.11046 -3.88445,-0.43985 -4.32768,-0.59056 -0.2202,-0.0749 -1.07115,-0.22419 -1.89098,-0.3318 -1.83125,-0.24036 -2.79539,-0.38089 -4.97117,-0.72457 -1.73168,-0.27354 -2.51409,-0.3904 -4.77292,-0.71291 -1.39596,-0.19931 -1.8633,-0.39016 -10.35269,-4.2277 -3.10512,-1.40364 -5.74122,-2.5488 -5.85799,-2.54479 -0.11677,0.004 -0.24425,-0.0584 -0.28327,-0.13868 -0.039,-0.0803 -1.1666,-0.63379 -2.50571,-1.23004 -2.73552,-1.21803 -2.79603,-1.2203 -4.86071,-0.18258 -0.67891,0.34121 -2.00304,0.97551 -2.94253,1.40955 -0.93949,0.43404 -1.94656,0.92412 -2.23795,1.08907 -0.29138,0.16496 -0.60207,0.30295 -0.6904,0.30665 -0.0883,0.004 -0.61462,0.23479 -1.1695,0.51353 -0.55489,0.27874 -1.62217,0.797 -2.37174,1.15168 -0.74957,0.35468 -1.86893,0.89286 -2.48746,1.19595 -0.61854,0.30309 -1.17894,0.55293 -1.24533,0.55521 -0.12157,0.004 -0.58462,0.23211 -3.07998,1.51613 -1.65387,0.85103 -1.74242,0.85511 -7.704083,0.35473 -2.510062,-0.21068 -5.322725,-0.44694 -6.250367,-0.52503 -3.686135,-0.3103 -4.930229,-0.39731 -6.564467,-0.45908 l -1.703538,-0.0644 -2.309445,1.31782 c -1.270195,0.7248 -2.963634,1.71326 -3.763197,2.19658 -0.799563,0.48332 -1.58511,0.94272 -1.745657,1.02089 -0.160547,0.0782 -0.814884,0.46924 -1.454084,0.86904 -0.6392,0.39981 -1.356845,0.82176 -1.594766,0.93765 -0.237922,0.1159 -1.110744,0.62654 -1.939604,1.13475 -0.828859,0.50822 -2.555015,1.51895 -3.8359,2.24608 -1.280888,0.72712 -2.381664,1.40903 -2.446172,1.51535 -0.164476,0.2711 -1.796299,0.47878 -2.043538,0.26008 z"
         id="path1" /><g
         id="g27"
         style="fill:#bcd35f"><path
           style="fill:#bcd35f;stroke:none;stroke-width:0.14947"
           d="m 161.01712,185.06772 c -0.0467,-0.0388 -2.35457,-0.0515 -5.12864,-0.028 -2.77408,0.0235 -5.89009,0.0283 -6.92448,0.0106 -1.03439,-0.0176 -7.08902,-0.0275 -13.45473,-0.0218 -6.36572,0.006 -12.82068,0.005 -14.34436,-0.002 -2.69803,-0.0117 -10.82722,-0.0137 -17.21337,-0.006 -1.74102,0.002 -4.145174,-0.005 -5.342558,-0.0157 -1.197383,-0.0109 -3.779393,-0.0113 -5.73779,-0.002 -1.958396,0.01 -4.629417,0.01 -5.93559,-6.7e-4 -1.306185,-0.01 -7.494222,-0.0161 -13.751215,-0.0135 -6.256993,0.003 -12.756513,0.001 -14.44338,-0.004 -1.686857,-0.005 -5.546799,-0.004 -8.577639,0.004 -3.030839,0.007 -5.54203,-0.0169 -5.580422,-0.0528 -0.0384,-0.0358 -0.0607,-7.40818 -0.04956,-16.38296 0.01115,-8.97477 0.0013,-16.90872 -0.02194,-17.63099 l -0.04219,-1.31323 0.647601,0.13354 c 0.356183,0.0734 1.186251,0.26317 1.844601,0.42159 0.658346,0.15844 2.228989,0.5244 3.490315,0.81325 1.261318,0.28885 2.742097,0.63039 3.290598,0.75896 0.991716,0.23247 2.337744,0.54417 4.33775,1.00451 0.575848,0.13255 1.585808,0.37544 2.244356,0.53977 0.658559,0.16433 1.511157,0.36213 1.894679,0.43955 0.383522,0.0774 1.110246,0.23212 1.614937,0.34378 l 0.917615,0.20301 2.597254,-1.55792 c 1.42849,-0.85686 2.815905,-1.67259 3.083142,-1.81273 0.267236,-0.14015 0.616382,-0.34409 0.77587,-0.4532 0.562348,-0.38476 5.977545,-3.58082 6.072608,-3.58408 0.053,-0.002 1.609853,-0.91139 3.45971,-2.02128 1.849867,-1.10989 3.55937,-2.10061 3.798902,-2.20159 0.406926,-0.17156 1.468541,-0.13053 5.748704,0.22216 0.900294,0.0742 2.373431,0.19296 3.273617,0.26393 1.968945,0.15522 4.830318,0.39343 6.994285,0.58225 0.87316,0.0762 2.30686,0.16573 3.18599,0.19895 1.68843,0.0639 1.86253,0.007 5.2701,-1.70233 0.42791,-0.21471 1.52287,-0.73831 2.43325,-1.16353 0.91037,-0.42522 2.01477,-0.95816 2.4542,-1.18431 0.43944,-0.22614 0.86154,-0.41331 0.93799,-0.41594 0.0765,-0.003 0.59284,-0.23804 1.1475,-0.52315 0.55467,-0.2851 1.66578,-0.8234 2.46913,-1.19619 0.80336,-0.37279 1.89841,-0.89401 2.43344,-1.15824 0.53502,-0.26424 1.73728,-0.8336 2.67168,-1.26523 l 1.6989,-0.7848 5.68246,2.55747 c 3.12534,1.40661 7.66639,3.45322 10.09123,4.54803 2.42483,1.09481 4.77224,2.0433 5.21646,2.10773 1.32008,0.19149 4.32104,0.64513 5.28275,0.79857 0.49237,0.0786 1.70056,0.26005 2.68484,0.40331 0.98428,0.14326 2.14768,0.31688 2.58532,0.38582 0.43764,0.069 1.4219,0.21158 2.18725,0.31698 0.76535,0.1054 1.70546,0.25855 2.08913,0.34033 0.38367,0.0817 1.52529,0.26949 2.53693,0.41715 l 1.83935,0.26846 0.0439,1.30944 c 0.0241,0.72021 0.0357,8.83309 0.0258,18.02863 -0.01,9.19554 -6.6e-4,17.23053 0.0199,17.85552 l 0.038,1.13634 -2.2397,0.0768 c -1.23183,0.0422 -2.27787,0.045 -2.32455,0.007 z"
           id="path2" /></g></g><path
       style="fill:#87cdde;stroke:#000000;stroke-width:0.564926"
       d=""
       id="path3"
       transform="scale(0.26458333)" /><path
       style="fill:#87cdde;stroke:#000000;stroke-width:0.564926"
       d=""
       id="path4"
       transform="scale(0.26458333)" /><path
       style="fill:#87cdde;stroke:#000000;stroke-width:0.282463"
       d=""
       id="path5"
       transform="scale(0.26458333)" /><g
       id="g23"
       transform="matrix(0.70471174,0,0,0.70471174,129.33606,60.924955)"><path
         style="fill:#668000;stroke-width:0.792455"
         d="m -322.64016,640.09724 c -4.85162,-1.73671 -6.59193,-3.13759 -10.38628,-8.36056 l -2.97027,-4.08862 v -95.27958 c 0,-103.97775 -0.41145,-96.50895 5.69739,-103.4221 5.04894,-5.7137 -6.07633,-5.4123 199.77954,-5.4123 205.855862,0 194.730586,-0.3014 199.779532,5.4123 6.108965,6.91329 5.697393,-0.5632 5.697393,103.49789 v 95.35539 l -3.428026,4.53699 c -1.885419,2.49535 -5.305666,5.48051 -7.60055,6.6337 -4.121479,2.07105 -6.48741,2.09939 -193.399999,2.3172 -156.33314,0.18218 -189.91261,-0.0247 -193.16873,-1.19031 z m 126.25376,-25.40147 c 2.38881,-2.16183 2.48504,-7.43174 0.18215,-9.97639 -1.62341,-1.79386 -4.32196,-1.91717 -41.95654,-1.91717 h -40.22153 l -1.23001,-2.88296 c -2.22065,-5.20491 -7.84975,-11.30464 -12.76566,-13.83299 l -4.82971,-2.48402 V 532.03288 480.4635 l 4.23029,-1.90759 c 4.86005,-2.19158 11.1859,-8.74321 12.7364,-13.19097 l 1.0604,-3.04185 h 38.61821 c 37.90185,0 43.32594,-0.41609 45.26952,-3.47273 1.57334,-2.47439 0.82747,-7.28571 -1.43347,-9.24661 -2.12764,-1.84529 -4.82042,-1.95758 -46.94284,-1.95758 -42.52616,0 -44.76774,0.0958 -46.38274,1.98197 -0.93336,1.09008 -2.03619,3.56681 -2.45074,5.50384 -0.41454,1.93703 -1.50046,4.80543 -2.41314,6.37422 -1.6258,2.79456 -7.84221,6.05865 -11.5386,6.05865 -4.38902,0 -4.38186,-0.10547 -4.38186,64.55494 0,49.36245 0.27619,62.2681 1.35171,63.1607 0.74344,0.61701 3.45605,1.59285 6.02802,2.16856 5.70142,1.2762 9.85663,5.55534 10.91138,11.23684 1.52358,8.20691 -1.40817,7.7449 49.14542,7.7449 40.49129,0 45.29195,-0.17718 47.01334,-1.73502 z m 84.40845,-0.30526 c 14.431301,-3.59457 19.750878,-6.01271 31.328706,-14.24114 13.451474,-9.56003 24.697751,-24.94973 30.510871,-41.75188 2.773928,-8.01768 2.953878,-9.58936 2.958082,-25.83484 0.005,-19.37106 -1.150965,-24.67201 -8.640746,-39.62418 -16.168444,-32.27774 -55.729303,-51.30402 -90.741243,-43.64081 -32.18077,7.04354 -54.63558,27.33128 -64.8976,58.63448 -2.11714,6.4581 -2.40166,9.39591 -2.38539,24.63051 0.0173,16.19681 0.20557,17.84118 2.95807,25.83484 7.18979,20.8802 21.14561,37.41613 40.98033,48.55663 15.51603,8.71483 40.1174,11.87294 57.92892,7.43639 z m 141.080612,0.20566 c 0.905461,-1.00904 1.986784,-3.66866 2.402937,-5.91028 1.054747,-5.6815 5.209952,-9.96064 10.91137,-11.23684 2.571974,-0.57571 5.284584,-1.55155 6.028022,-2.16856 1.075515,-0.8926 1.351714,-13.79825 1.351714,-63.1607 0,-64.66041 0.0072,-64.55494 -4.381859,-64.55494 -3.696393,0 -9.912794,-3.26409 -11.538609,-6.05865 -0.912674,-1.56879 -2.002268,-4.5035 -2.421315,-6.52157 -1.610321,-7.75515 1.158009,-7.33846 -48.7548,-7.33846 -42.191249,0 -44.885586,0.11218 -47.013342,1.95758 -2.939085,2.54906 -2.964382,7.56056 -0.05148,10.19807 2.07539,1.87917 4.577145,2.01466 42.368032,2.29458 l 40.162395,0.29748 1.048058,3.00645 c 1.539462,4.41613 7.87918,10.97084 12.724064,13.15558 l 4.230288,1.90759 v 51.56938 51.56936 l -4.829704,2.48402 c -4.95105,2.54641 -11.943923,9.97196 -11.943923,12.68293 0,3.88536 -1.5496,4.03302 -42.323278,4.03302 -35.56987,0 -40.011306,0.18469 -41.724397,1.73502 -2.388805,2.16183 -2.485034,7.43174 -0.182151,9.97639 1.629831,1.80095 4.479827,1.91717 47.013342,1.91717 41.796156,0 45.404949,-0.1411 46.92464,-1.83462 z M -254.22528,551.34874 c 8.62026,-1.97591 14.72519,-10.19856 14.62657,-19.70038 -0.0669,-6.44685 -2.63986,-11.35282 -8.15587,-15.55118 -4.09765,-3.11881 -5.2245,-3.45321 -11.63667,-3.45321 -6.21773,0 -7.63658,0.38894 -11.42189,3.131 -10.85308,7.86194 -11.43226,23.24674 -1.19929,31.85721 1.7995,1.51419 4.5328,3.03006 6.07399,3.36863 1.54119,0.33856 3.27393,0.77294 3.85052,0.96528 1.78379,0.59504 2.98465,0.50075 7.86264,-0.61735 z M 7.8626376,549.8361 c 12.9282414,-6.65411 13.9755444,-25.32157 1.9109354,-34.06113 -3.7853148,-2.74206 -5.2041645,-3.131 -11.4218963,-3.131 -6.4121592,0 -7.5390219,0.3344 -11.6366617,3.45321 -5.516007,4.19836 -8.088956,9.10433 -8.155872,15.55118 -0.131537,12.67368 10.05472,21.77873 22.4892087,20.10211 2.3063737,-0.31098 5.3728023,-1.17245 6.8142859,-1.91437 z"
         id="path18"
         transform="scale(0.26458333)" /><path
         style="fill:#668000;stroke-width:0.792455"
         d="m -263.40827,535.72193 c -1.86714,-2.98977 -1.6062,-5.70274 0.75393,-7.83863 4.62693,-4.18732 10.28281,1.34946 7.53624,7.37754 -1.47322,3.23335 -6.38815,3.50672 -8.29017,0.46109 z"
         id="path19"
         transform="scale(0.26458333)" /><path
         style="fill:#668000;stroke-width:0.792455"
         d="m -136.80989,602.15116 c -20.80781,-3.82936 -30.8432,-8.58745 -42.60685,-20.20126 -5.5163,-5.44603 -12.38179,-14.92965 -14.87873,-20.55267 -4.40315,-9.91578 -5.76791,-16.85481 -5.77421,-29.35875 -0.007,-14.23905 1.48483,-20.52337 7.64798,-32.21331 26.27245,-49.8322 97.51242,-49.83158 123.806255,10e-4 5.885016,11.15342 7.681388,18.84101 7.649581,32.7364 -0.03636,15.88083 -2.906859,25.60751 -11.221798,38.02504 -10.098069,15.08046 -24.982828,25.58994 -41.751388,29.47883 -7.76246,1.80024 -18.90002,2.8154 -22.87084,2.08464 z m 9.36018,-12.41456 c 3.47072,-1.79478 4.26839,-3.46814 4.26839,-8.95422 0,-3.62216 0.34587,-4.1405 3.44534,-5.16342 4.35194,-1.43626 10.43556,-7.295 12.87451,-12.39859 2.50842,-5.24895 3.12518,-13.84855 1.42936,-19.92982 -0.98081,-3.51722 -2.9268,-6.50508 -6.68348,-10.26176 -5.37059,-5.37059 -5.53148,-5.44143 -19.97672,-8.79615 -6.00164,-1.3938 -7.91786,-2.93951 -9.53464,-7.69112 -1.41678,-4.16381 -0.14624,-9.41777 3.05051,-12.61452 1.80007,-1.80007 3.52574,-2.29072 8.05666,-2.29072 6.91506,0 9.7473,2.23352 11.5619,9.11778 1.86135,7.06162 3.67775,9.22837 7.7362,9.22837 12.760154,0 6.5475,-24.73707 -7.80275,-31.06839 -3.91643,-1.72792 -4.15689,-2.09525 -4.15689,-6.34985 0,-5.37646 -2.73155,-8.70923 -7.13809,-8.70923 -4.73699,0 -6.70582,2.18301 -7.27068,8.06159 -0.47362,4.92905 -0.76641,5.3833 -4.54409,7.05001 -5.39564,2.38055 -11.91225,9.97943 -13.53814,15.78653 -1.65141,5.89827 -0.97525,14.51055 1.55503,19.80641 4.06879,8.51598 10.81121,12.75108 24.35028,15.2951 7.82699,1.4707 10.25492,4.24797 10.25492,11.73041 0,6.95166 -1.69596,9.4084 -7.7463,11.22113 -3.24859,0.9733 -4.75557,0.9138 -7.66712,-0.30273 -4.72049,-1.97234 -5.53721,-3.07403 -7.62662,-10.28763 -2.39396,-8.26501 -7.48177,-10.68199 -12.13015,-5.76247 -1.81814,1.92419 -2.1498,3.32457 -1.8001,7.60055 0.76862,9.39834 6.35584,17.53031 14.51908,21.13192 3.81636,1.68378 4.10505,2.11464 4.10505,6.12661 0,4.53929 1.2452,6.84815 4.71759,8.74739 2.64798,1.44833 2.21798,1.47276 5.69095,-0.32318 z"
         id="path20"
         transform="scale(0.26458333)" /><path
         style="fill:#668000;stroke-width:0.792455"
         d="m -5.9214622,535.26084 c -1.6836649,-3.69524 -0.3339079,-7.77716 2.8346162,-8.57241 3.19747247,-0.80251 6.7722404,1.98937 6.7227361,5.25044 -0.086663,5.70879 -7.3237167,8.22426 -9.5573523,3.32197 z"
         id="path21"
         transform="scale(0.26458333)" /><path
         style="fill:#668000;stroke-width:0.792455"
         d="m -204.42858,407.25661 c 4.03616,-0.76973 9.93314,-1.6967 13.1044,-2.05993 3.17126,-0.36322 10.01176,-1.3008 15.2011,-2.0835 5.18934,-0.78271 15.09626,-2.20521 22.01538,-3.16112 6.91912,-0.95591 18.4772,-2.61454 25.68462,-3.68586 7.20742,-1.07132 18.29374,-2.66689 24.63626,-3.54572 19.647781,-2.72241 35.108316,-4.92849 48.748357,-6.95594 7.207418,-1.07131 18.765495,-2.72103 25.684616,-3.66605 6.919121,-0.94502 16.826044,-2.35156 22.0153853,-3.12565 5.1893408,-0.77408 16.7771912,-2.4638 25.7507877,-3.75493 l 16.315613,-2.3475 5.070761,2.53019 c 6.493061,3.23987 10.170364,8.69154 11.142186,16.51847 0.404978,3.26172 1.081626,8.40712 1.503661,11.43424 l 0.767331,5.50384 -132.489458,-0.10052 c -113.65486,-0.0862 -131.44623,-0.29947 -125.151,-1.50002 z"
         id="path22"
         transform="scale(0.26458333)" /><path
         style="fill:#668000;stroke-width:0.792455"
         d="m -203.38023,391.3999 c 1.15319,-0.3155 5.87077,-1.68514 10.48352,-3.04364 4.61275,-1.3585 10.27385,-2.99624 12.58022,-3.63943 2.30638,-0.64318 6.31632,-1.78978 8.91099,-2.54798 2.59467,-0.7582 7.78401,-2.19595 11.53187,-3.19499 3.74786,-0.99905 9.64483,-2.64783 13.1044,-3.66396 3.45956,-1.01613 9.35653,-2.66751 13.10439,-3.66973 3.74786,-1.00222 8.9372,-2.42055 11.53187,-3.15184 2.59467,-0.73129 8.49165,-2.36097 13.1044,-3.6215 4.61274,-1.26053 10.627661,-2.9647 13.36648,-3.78704 9.178633,-2.75592 14.892286,-4.38913 21.753297,-6.21802 3.747857,-0.99905 9.644835,-2.64783 13.104396,-3.66396 3.45956,-1.01613 9.120659,-2.6142 12.58022,-3.55127 3.45956,-0.93707 11.243572,-3.15499 17.297803,-4.92873 6.05423,-1.77373 12.187088,-3.46261 13.628571,-3.75306 1.441484,-0.29046 4.828928,-1.22204 7.5276476,-2.07019 6.3486396,-1.99525 12.0496284,-0.57543 17.5147905,4.36202 3.7321739,3.3718 5.3722569,6.86052 7.4770749,15.90502 0.923619,3.96879 1.029072,3.91115 -10.0473921,5.49155 -4.57565668,0.65286 -13.0369555,1.86174 -18.8028899,2.68641 -5.765934,0.82466 -15.908736,2.25164 -22.539561,3.17105 -6.630824,0.91942 -18.424781,2.60551 -26.208792,3.74687 -13.43578,1.97008 -18.817273,2.7415 -47.175825,6.76249 -6.63082,0.94019 -17.95302,2.58596 -25.16044,3.65727 -7.20742,1.07131 -18.7655,2.72103 -25.68462,3.66605 -6.91912,0.94502 -16.82604,2.36809 -22.01538,3.16238 -10.1174,1.54859 -24.42982,2.84162 -20.96704,1.89423 z"
         id="path23"
         transform="scale(0.26458333)" /></g></g></svg>
