<?xml version="1.0" encoding="UTF-8" standalone="no"?>
<!-- Created with Inkscape (http://www.inkscape.org/) -->

<svg
   width="210mm"
   height="297mm"
   viewBox="0 0 210 297"
   version="1.1"
   id="svg1"
   xml:space="preserve"
   inkscape:version="1.3 (0e150ed6c4, 2023-07-21)"
   sodipodi:docname="nurse_index.svg"
   inkscape:export-filename="nurse_index.png"
   inkscape:export-xdpi="96"
   inkscape:export-ydpi="96"
   xmlns:inkscape="http://www.inkscape.org/namespaces/inkscape"
   xmlns:sodipodi="http://sodipodi.sourceforge.net/DTD/sodipodi-0.dtd"
   xmlns="http://www.w3.org/2000/svg"
   xmlns:svg="http://www.w3.org/2000/svg"><sodipodi:namedview
     id="namedview1"
     pagecolor="#505050"
     bordercolor="#eeeeee"
     borderopacity="1"
     inkscape:showpageshadow="0"
     inkscape:pageopacity="0"
     inkscape:pagecheckerboard="0"
     inkscape:deskcolor="#505050"
     inkscape:document-units="mm"
     inkscape:zoom="0.94615212"
     inkscape:cx="201.87029"
     inkscape:cy="586.05798"
     inkscape:window-width="1920"
     inkscape:window-height="986"
     inkscape:window-x="-11"
     inkscape:window-y="-11"
     inkscape:window-maximized="1"
     inkscape:current-layer="layer1" /><defs
     id="defs1" /><g
     inkscape:label="Layer 1"
     inkscape:groupmode="layer"
     id="layer1"><g
       id="g28"
       transform="rotate(0.22892285,104.9725,131.91874)"
       style="fill:#c8b7b7"><path
         style="fill:#c8b7b7;stroke:none;stroke-width:0.14947"
         d="m 63.433048,154.50168 c -0.112225,-0.0993 -0.651971,-0.26091 -1.199439,-0.35919 -0.547465,-0.0983 -1.489085,-0.29559 -2.092491,-0.43843 -0.603405,-0.14285 -1.590654,-0.37258 -2.19389,-0.5105 -0.603236,-0.13793 -1.635604,-0.38523 -2.294156,-0.54956 -0.65855,-0.16433 -1.511143,-0.36175 -1.894649,-0.43871 -0.383505,-0.077 -1.235906,-0.26879 -1.894222,-0.42629 -0.658315,-0.15751 -1.645104,-0.37371 -2.192858,-0.48044 -0.547757,-0.10675 -1.095496,-0.25385 -1.217202,-0.32689 -0.121703,-0.0731 -0.615032,-0.17924 -1.096282,-0.23598 -0.481253,-0.0567 -0.966222,-0.16683 -1.077711,-0.24467 -0.11149,-0.0778 -0.573738,-0.18968 -1.027221,-0.24854 l -0.824513,-0.10702 0.04192,-1.12508 c 0.02306,-0.6188 0.03673,-9.36053 0.03037,-19.42606 -0.0063,-10.06554 0.02126,-18.33973 0.06135,-18.3871 0.0709,-0.0838 113.972306,-0.0755 118.659786,0.009 l 2.34906,0.0422 -0.0635,1.50456 c -0.0349,0.8275 -0.0563,8.87185 -0.0474,17.87631 l 0.0161,16.37176 -0.73467,0.0252 c -0.40407,0.0138 -0.78519,-0.0506 -0.84693,-0.14324 -0.0617,-0.0926 -0.53812,-0.20041 -1.05862,-0.23951 -1.4707,-0.11046 -3.88445,-0.43985 -4.32768,-0.59056 -0.2202,-0.0749 -1.07115,-0.22419 -1.89098,-0.3318 -1.83125,-0.24036 -2.79539,-0.38089 -4.97117,-0.72457 -1.73168,-0.27354 -2.51409,-0.3904 -4.77292,-0.71291 -1.39596,-0.19931 -1.8633,-0.39016 -10.35269,-4.2277 -3.10512,-1.40364 -5.74122,-2.5488 -5.85799,-2.54479 -0.11677,0.004 -0.24425,-0.0584 -0.28327,-0.13868 -0.039,-0.0803 -1.1666,-0.63379 -2.50571,-1.23004 -2.73552,-1.21803 -2.79603,-1.2203 -4.86071,-0.18258 -0.67891,0.34121 -2.00304,0.97551 -2.94253,1.40955 -0.93949,0.43404 -1.94656,0.92412 -2.23795,1.08907 -0.29138,0.16496 -0.60207,0.30295 -0.6904,0.30665 -0.0883,0.004 -0.61462,0.23479 -1.1695,0.51353 -0.55489,0.27874 -1.62217,0.797 -2.37174,1.15168 -0.74957,0.35468 -1.86893,0.89286 -2.48746,1.19595 -0.61854,0.30309 -1.17894,0.55293 -1.24533,0.55521 -0.12157,0.004 -0.58462,0.23211 -3.07998,1.51613 -1.65387,0.85103 -1.74242,0.85511 -7.704083,0.35473 -2.510062,-0.21068 -5.322725,-0.44694 -6.250367,-0.52503 -3.686135,-0.3103 -4.930229,-0.39731 -6.564467,-0.45908 l -1.703538,-0.0644 -2.309445,1.31782 c -1.270195,0.7248 -2.963634,1.71326 -3.763197,2.19658 -0.799563,0.48332 -1.58511,0.94272 -1.745657,1.02089 -0.160547,0.0782 -0.814884,0.46924 -1.454084,0.86904 -0.6392,0.39981 -1.356845,0.82176 -1.594766,0.93765 -0.237922,0.1159 -1.110744,0.62654 -1.939604,1.13475 -0.828859,0.50822 -2.555015,1.51895 -3.8359,2.24608 -1.280888,0.72712 -2.381664,1.40903 -2.446172,1.51535 -0.164476,0.2711 -1.796299,0.47878 -2.043538,0.26008 z"
         id="path1" /><g
         id="g27"
         style="fill:#c8b7b7"><path
           style="fill:#c8b7b7;stroke:none;stroke-width:0.14947"
           d="m 161.01712,185.06772 c -0.0467,-0.0388 -2.35457,-0.0515 -5.12864,-0.028 -2.77408,0.0235 -5.89009,0.0283 -6.92448,0.0106 -1.03439,-0.0176 -7.08902,-0.0275 -13.45473,-0.0218 -6.36572,0.006 -12.82068,0.005 -14.34436,-0.002 -2.69803,-0.0117 -10.82722,-0.0137 -17.21337,-0.006 -1.74102,0.002 -4.145174,-0.005 -5.342558,-0.0157 -1.197383,-0.0109 -3.779393,-0.0113 -5.73779,-0.002 -1.958396,0.01 -4.629417,0.01 -5.93559,-6.7e-4 -1.306185,-0.01 -7.494222,-0.0161 -13.751215,-0.0135 -6.256993,0.003 -12.756513,0.001 -14.44338,-0.004 -1.686857,-0.005 -5.546799,-0.004 -8.577639,0.004 -3.030839,0.007 -5.54203,-0.0169 -5.580422,-0.0528 -0.0384,-0.0358 -0.0607,-7.40818 -0.04956,-16.38296 0.01115,-8.97477 0.0013,-16.90872 -0.02194,-17.63099 l -0.04219,-1.31323 0.647601,0.13354 c 0.356183,0.0734 1.186251,0.26317 1.844601,0.42159 0.658346,0.15844 2.228989,0.5244 3.490315,0.81325 1.261318,0.28885 2.742097,0.63039 3.290598,0.75896 0.991716,0.23247 2.337744,0.54417 4.33775,1.00451 0.575848,0.13255 1.585808,0.37544 2.244356,0.53977 0.658559,0.16433 1.511157,0.36213 1.894679,0.43955 0.383522,0.0774 1.110246,0.23212 1.614937,0.34378 l 0.917615,0.20301 2.597254,-1.55792 c 1.42849,-0.85686 2.815905,-1.67259 3.083142,-1.81273 0.267236,-0.14015 0.616382,-0.34409 0.77587,-0.4532 0.562348,-0.38476 5.977545,-3.58082 6.072608,-3.58408 0.053,-0.002 1.609853,-0.91139 3.45971,-2.02128 1.849867,-1.10989 3.55937,-2.10061 3.798902,-2.20159 0.406926,-0.17156 1.468541,-0.13053 5.748704,0.22216 0.900294,0.0742 2.373431,0.19296 3.273617,0.26393 1.968945,0.15522 4.830318,0.39343 6.994285,0.58225 0.87316,0.0762 2.30686,0.16573 3.18599,0.19895 1.68843,0.0639 1.86253,0.007 5.2701,-1.70233 0.42791,-0.21471 1.52287,-0.73831 2.43325,-1.16353 0.91037,-0.42522 2.01477,-0.95816 2.4542,-1.18431 0.43944,-0.22614 0.86154,-0.41331 0.93799,-0.41594 0.0765,-0.003 0.59284,-0.23804 1.1475,-0.52315 0.55467,-0.2851 1.66578,-0.8234 2.46913,-1.19619 0.80336,-0.37279 1.89841,-0.89401 2.43344,-1.15824 0.53502,-0.26424 1.73728,-0.8336 2.67168,-1.26523 l 1.6989,-0.7848 5.68246,2.55747 c 3.12534,1.40661 7.66639,3.45322 10.09123,4.54803 2.42483,1.09481 4.77224,2.0433 5.21646,2.10773 1.32008,0.19149 4.32104,0.64513 5.28275,0.79857 0.49237,0.0786 1.70056,0.26005 2.68484,0.40331 0.98428,0.14326 2.14768,0.31688 2.58532,0.38582 0.43764,0.069 1.4219,0.21158 2.18725,0.31698 0.76535,0.1054 1.70546,0.25855 2.08913,0.34033 0.38367,0.0817 1.52529,0.26949 2.53693,0.41715 l 1.83935,0.26846 0.0439,1.30944 c 0.0241,0.72021 0.0357,8.83309 0.0258,18.02863 -0.01,9.19554 -6.6e-4,17.23053 0.0199,17.85552 l 0.038,1.13634 -2.2397,0.0768 c -1.23183,0.0422 -2.27787,0.045 -2.32455,0.007 z"
           id="path2" /></g></g><path
       style="fill:#87cdde;stroke:#000000;stroke-width:0.564926"
       d=""
       id="path3"
       transform="scale(0.26458333)" /><path
       style="fill:#87cdde;stroke:#000000;stroke-width:0.564926"
       d=""
       id="path4"
       transform="scale(0.26458333)" /><path
       style="fill:#87cdde;stroke:#000000;stroke-width:0.282463"
       d=""
       id="path5"
       transform="scale(0.26458333)" /><g
       id="g12"
       transform="matrix(0.46265179,0,0,0.46265179,111.72366,88.770548)"
       style="fill:#916f6f"><path
         style="fill:#916f6f;stroke-width:0.211382"
         d="m -19.465954,159.41105 c -6.701871,-1.7887 -12.227004,-6.56354 -15.388026,-13.29841 -1.488715,-3.17184 -1.918869,-5.59534 -1.918869,-10.81092 v -4.70917 h 2.248154 c 7.587056,0 17.356328,-2.34566 22.549141,-5.41419 1.365885,-0.80713 3.2077364,-2.00258 4.0930031,-2.65657 l 1.6095742,-1.18906 1.5984616,0.74858 c 0.8791496,0.41172 3.3627404,1.70869 5.51908658,2.88215 2.15634622,1.17346 4.54727992,2.46243 5.31318782,2.86437 l 1.3925576,0.73079 -0.011615,6.40006 c -0.011245,6.19292 -0.036047,6.47324 -0.7666672,8.66116 -0.4182904,1.25262 -1.5836212,3.62238 -2.6127657,5.31319 -3.27257301,5.37661 -8.0238652,8.91934 -14.0613684,10.48464 -2.6593326,0.68947 -6.9669266,0.68648 -9.5638596,-0.007 z"
         id="path6" /><path
         style="fill:#916f6f;stroke-width:0.211382"
         d="m -21.094284,171.40875 c -6.292903,-6.25319 -6.461458,-6.44979 -6.042477,-7.04797 0.893704,-1.27595 0.782933,-1.32678 -5.022004,-2.30464 -5.157525,-0.86881 -14.274821,-4.0682 -14.886783,-5.224 -0.259903,-0.49087 -0.346451,-3.927 -0.349552,-13.87813 l -0.0041,-13.22573 0.908833,0.16966 c 0.499858,0.0933 1.789705,0.25631 2.866324,0.36222 l 1.95749,0.19256 0.161436,5.59283 c 0.173953,6.02646 0.425918,7.4744 1.985862,11.41195 0.776232,1.95933 1.880893,3.89629 3.95936,6.94248 0.381526,0.55916 1.974386,2.15313 3.539688,3.54216 3.097667,2.74881 5.905053,4.32694 10.351383,5.81888 2.238698,0.75118 2.643741,0.79644 7.127489,0.79643 4.6430803,0 4.815213,-0.0213 7.3837694,-0.91221 7.77475736,-2.69678 13.2622288,-7.45565 16.8311114,-14.59636 2.2165842,-4.435 2.7654122,-7.28266 2.7684072,-14.36424 l 0.0021,-4.99625 0.629193,0.18369 c 0.346056,0.10102 1.670936,0.39287 2.94418,0.64854 l 2.314985,0.46487 -0.07785,12.96937 c -0.0736,12.26122 -0.106193,12.99009 -0.596868,13.34873 -1.19453,0.87311 -10.36048,4.03984 -12.9602864,4.47763 -0.5841312,0.0984 -2.3582868,0.41979 -3.94257472,0.71429 -1.58428529,0.29449 -2.94553218,0.53544 -3.02498918,0.53544 -0.2437712,0 0.214966,1.23094 0.6391566,1.71507 0.3563038,0.40665 0.2405962,0.60581 -1.0560129,1.81767 -0.8008858,0.74855 -3.5469856,3.40548 -6.1024399,5.90432 -2.5554565,2.49883 -4.9129205,4.73008 -5.2388085,4.95834 -0.567626,0.39758 -0.864594,0.14468 -7.066007,-6.0176 z"
         id="path7" /><path
         style="fill:#916f6f;stroke-width:0.211382"
         d="m 14.960814,125.44819 c -2.182087,-0.65763 -7.85877,-2.78328 -10.1045586,-3.78368 -2.358181,-1.05046 -8.3858364,-4.27426 -8.2485123,-4.41159 0.0742,-0.0742 0.8242591,0.0655 1.6668009,0.31043 3.108018,0.90353 6.0725499,0.43268 7.7335114,-1.22828 0.8351255,-0.83513 1.2229756,-1.71204 2.5075356,-5.66945 0.8357843,-2.57484 1.611506,-4.68152 1.723827,-4.68152 0.994875,0 5.058661,5.46612 6.369925,8.56806 0.966907,2.28733 1.707169,6.35393 1.707169,9.37827 0,2.57367 0.05915,2.54691 -3.355698,1.51776 z"
         id="path8" /><path
         style="fill:#916f6f;stroke-width:0.211382"
         d="m -32.054733,113.14871 c -0.496036,-0.24793 -1.02666,-1.47943 -2.540315,-5.8957 -1.052322,-3.07027 -2.182532,-6.60879 -2.511581,-7.863371 -0.537184,-2.048161 -0.560319,-2.416603 -0.226602,-3.608525 0.477649,-1.705996 1.396002,-2.779958 3.183493,-3.722923 l 1.431689,-0.755264 h 17.757233 17.7572293 l 1.4316921,0.755264 c 0.7874291,0.415399 1.7786297,1.167583 2.2026695,1.671526 0.7370842,0.875975 0.7643548,1.014887 0.6202759,3.159713 -0.082889,1.2339 -0.5393213,3.73073 -1.0142934,5.54851 -0.9451843,3.61735 -3.0235472,9.91218 -3.4559822,10.46729 -0.3682894,0.47276 -1.5291699,0.43958 -3.47596611,-0.0994 -7.66509549,-2.12195 -12.00901709,-2.64801 -17.63105509,-2.13519 -3.255963,0.297 -4.953323,0.64752 -10.890049,2.24886 -1.573961,0.42455 -2.147803,0.47439 -2.638438,0.22917 z m 18.755407,-7.28702 c 0.398629,-0.42432 0.694706,-1.16336 0.784217,-1.95749 l 0.143801,-1.2758 h 1.134084 c 1.4962451,0 2.4285177,-0.84375 2.4285177,-2.19794 0,-1.435928 -0.8955379,-2.276319 -2.4256977,-2.276319 -1.199242,0 -1.20964,-0.0085 -1.20964,-0.992632 0,-1.155507 -0.621385,-2.499392 -1.270916,-2.74864 -1.930371,-0.740754 -3.482988,0.382857 -3.482988,2.520598 v 1.220674 h -1.398209 c -1.752206,0 -2.516772,0.652901 -2.516772,2.149199 0,1.54109 0.86505,2.32506 2.565519,2.32506 h 1.349462 v 1.22068 c 0,1.70578 0.810353,2.6943 2.208681,2.6943 0.750776,0 1.231818,-0.19404 1.689941,-0.68169 z"
         id="path9" /><path
         style="fill:#916f6f;stroke-width:0.211382"
         d="m -41.806394,125.67027 c -0.53831,-0.0636 -2.034479,-0.25591 -3.32482,-0.42747 l -2.346073,-0.31193 0.159975,-2.55226 c 0.381635,-6.08863 2.110816,-10.29201 6.096751,-14.82028 l 1.18351,-1.34453 0.891741,2.47183 c 1.12558,3.12003 3.331104,7.69958 3.977376,8.25863 1.564372,1.35324 4.307422,1.38047 8.824468,0.0876 4.024524,-1.15192 8.131899,-1.81563 11.250162,-1.81792 2.473656,-0.002 6.8775527,0.47957 7.1692294,0.78367 0.2734786,0.28512 -4.0369384,3.62709 -6.4693584,5.01585 -2.652583,1.51446 -7.989232,3.26536 -12.248092,4.01847 -3.155085,0.55793 -12.510362,0.95174 -15.164869,0.63836 z"
         id="path10" /><path
         style="fill:#916f6f;stroke-width:0.211382"
         d="m -56.497277,207.5075 c -1.294686,-0.52479 -1.305129,-0.60977 -1.177309,-9.57974 0.114647,-8.04545 0.157949,-8.61527 0.862584,-11.35067 0.408033,-1.58399 1.11242,-3.62681 1.565302,-4.5396 2.373759,-4.78434 6.061575,-9.04749 10.186913,-11.77617 3.393993,-2.24494 5.434997,-3.16716 8.635024,-3.90171 l 2.725039,-0.62551 3.147433,3.07806 c 1.731086,1.69293 6.531154,6.46433 10.666819,10.6031 6.535722,6.54063 7.633182,7.76282 8.389245,9.3427 l 0.869852,1.81767 0.08482,8.59898 0.08483,8.59897 -22.735783,-0.0177 c -12.504682,-0.01 -22.991831,-0.12151 -23.304775,-0.24835 z m 27.855539,-17.8891 c 1.06543,-1.06543 1.061083,-2.058 -0.01371,-3.13279 l -0.831131,-0.83114 -7.023949,0.0836 c -6.998065,0.0833 -7.025915,0.0861 -7.558111,0.7438 -0.790657,0.97717 -0.682905,2.17035 0.28325,3.1365 l 0.817411,0.81741 h 6.754419 6.754415 z"
         id="path11" /><path
         style="fill:#916f6f;stroke-width:0.211382"
         d="m -5.7922209,198.90139 -0.1012904,-8.88504 -0.7937474,-2.09731 c -0.9248801,-2.4438 -2.3177499,-4.65691 -3.6882943,-5.86026 -0.533162,-0.46812 -0.849357,-0.85114 -0.702657,-0.85114 0.146701,0 2.3847165,-2.09466 4.9733654,-4.65481 2.5886489,-2.56014 6.11401274,-6.03293 7.8341404,-7.7173 l 3.127502,-3.06249 2.6404093,0.60151 c 6.4686919,1.47362 13.1517149,6.49399 17.0599519,12.81564 2.025587,3.27643 2.594745,4.72466 3.430461,8.72885 0.614143,2.94255 0.671377,3.87174 0.673407,10.93258 0.0021,7.49063 -0.01503,7.73232 -0.586277,8.24943 -0.562711,0.50937 -1.31517,0.53605 -17.177086,0.60904 l -16.5885945,0.0763 z"
         id="path12" /></g></g></svg>
