<?xml version="1.0" encoding="UTF-8" standalone="no"?>
<!-- Created with Inkscape (http://www.inkscape.org/) -->

<svg
   width="210mm"
   height="297mm"
   viewBox="0 0 210 297"
   version="1.1"
   id="svg1"
   xml:space="preserve"
   inkscape:version="1.3 (0e150ed6c4, 2023-07-21)"
   sodipodi:docname="nutricionista_index.svg"
   inkscape:export-filename="nutricionista_index.png"
   inkscape:export-xdpi="96"
   inkscape:export-ydpi="96"
   xmlns:inkscape="http://www.inkscape.org/namespaces/inkscape"
   xmlns:sodipodi="http://sodipodi.sourceforge.net/DTD/sodipodi-0.dtd"
   xmlns="http://www.w3.org/2000/svg"
   xmlns:svg="http://www.w3.org/2000/svg"><sodipodi:namedview
     id="namedview1"
     pagecolor="#505050"
     bordercolor="#eeeeee"
     borderopacity="1"
     inkscape:showpageshadow="0"
     inkscape:pageopacity="0"
     inkscape:pagecheckerboard="0"
     inkscape:deskcolor="#505050"
     inkscape:document-units="mm"
     inkscape:zoom="0.94615212"
     inkscape:cx="201.34183"
     inkscape:cy="586.05798"
     inkscape:window-width="1920"
     inkscape:window-height="986"
     inkscape:window-x="-11"
     inkscape:window-y="-11"
     inkscape:window-maximized="1"
     inkscape:current-layer="layer1" /><defs
     id="defs1" /><g
     inkscape:label="Layer 1"
     inkscape:groupmode="layer"
     id="layer1"><g
       id="g28"
       transform="rotate(0.22892285,104.9725,131.91874)"
       style="fill:#cdde87"><path
         style="fill:#cdde87;stroke:none;stroke-width:0.14947"
         d="m 63.433048,154.50168 c -0.112225,-0.0993 -0.651971,-0.26091 -1.199439,-0.35919 -0.547465,-0.0983 -1.489085,-0.29559 -2.092491,-0.43843 -0.603405,-0.14285 -1.590654,-0.37258 -2.19389,-0.5105 -0.603236,-0.13793 -1.635604,-0.38523 -2.294156,-0.54956 -0.65855,-0.16433 -1.511143,-0.36175 -1.894649,-0.43871 -0.383505,-0.077 -1.235906,-0.26879 -1.894222,-0.42629 -0.658315,-0.15751 -1.645104,-0.37371 -2.192858,-0.48044 -0.547757,-0.10675 -1.095496,-0.25385 -1.217202,-0.32689 -0.121703,-0.0731 -0.615032,-0.17924 -1.096282,-0.23598 -0.481253,-0.0567 -0.966222,-0.16683 -1.077711,-0.24467 -0.11149,-0.0778 -0.573738,-0.18968 -1.027221,-0.24854 l -0.824513,-0.10702 0.04192,-1.12508 c 0.02306,-0.6188 0.03673,-9.36053 0.03037,-19.42606 -0.0063,-10.06554 0.02126,-18.33973 0.06135,-18.3871 0.0709,-0.0838 113.972306,-0.0755 118.659786,0.009 l 2.34906,0.0422 -0.0635,1.50456 c -0.0349,0.8275 -0.0563,8.87185 -0.0474,17.87631 l 0.0161,16.37176 -0.73467,0.0252 c -0.40407,0.0138 -0.78519,-0.0506 -0.84693,-0.14324 -0.0617,-0.0926 -0.53812,-0.20041 -1.05862,-0.23951 -1.4707,-0.11046 -3.88445,-0.43985 -4.32768,-0.59056 -0.2202,-0.0749 -1.07115,-0.22419 -1.89098,-0.3318 -1.83125,-0.24036 -2.79539,-0.38089 -4.97117,-0.72457 -1.73168,-0.27354 -2.51409,-0.3904 -4.77292,-0.71291 -1.39596,-0.19931 -1.8633,-0.39016 -10.35269,-4.2277 -3.10512,-1.40364 -5.74122,-2.5488 -5.85799,-2.54479 -0.11677,0.004 -0.24425,-0.0584 -0.28327,-0.13868 -0.039,-0.0803 -1.1666,-0.63379 -2.50571,-1.23004 -2.73552,-1.21803 -2.79603,-1.2203 -4.86071,-0.18258 -0.67891,0.34121 -2.00304,0.97551 -2.94253,1.40955 -0.93949,0.43404 -1.94656,0.92412 -2.23795,1.08907 -0.29138,0.16496 -0.60207,0.30295 -0.6904,0.30665 -0.0883,0.004 -0.61462,0.23479 -1.1695,0.51353 -0.55489,0.27874 -1.62217,0.797 -2.37174,1.15168 -0.74957,0.35468 -1.86893,0.89286 -2.48746,1.19595 -0.61854,0.30309 -1.17894,0.55293 -1.24533,0.55521 -0.12157,0.004 -0.58462,0.23211 -3.07998,1.51613 -1.65387,0.85103 -1.74242,0.85511 -7.704083,0.35473 -2.510062,-0.21068 -5.322725,-0.44694 -6.250367,-0.52503 -3.686135,-0.3103 -4.930229,-0.39731 -6.564467,-0.45908 l -1.703538,-0.0644 -2.309445,1.31782 c -1.270195,0.7248 -2.963634,1.71326 -3.763197,2.19658 -0.799563,0.48332 -1.58511,0.94272 -1.745657,1.02089 -0.160547,0.0782 -0.814884,0.46924 -1.454084,0.86904 -0.6392,0.39981 -1.356845,0.82176 -1.594766,0.93765 -0.237922,0.1159 -1.110744,0.62654 -1.939604,1.13475 -0.828859,0.50822 -2.555015,1.51895 -3.8359,2.24608 -1.280888,0.72712 -2.381664,1.40903 -2.446172,1.51535 -0.164476,0.2711 -1.796299,0.47878 -2.043538,0.26008 z"
         id="path1" /><g
         id="g27"
         style="fill:#cdde87"><path
           style="fill:#cdde87;stroke:none;stroke-width:0.14947"
           d="m 161.01712,185.06772 c -0.0467,-0.0388 -2.35457,-0.0515 -5.12864,-0.028 -2.77408,0.0235 -5.89009,0.0283 -6.92448,0.0106 -1.03439,-0.0176 -7.08902,-0.0275 -13.45473,-0.0218 -6.36572,0.006 -12.82068,0.005 -14.34436,-0.002 -2.69803,-0.0117 -10.82722,-0.0137 -17.21337,-0.006 -1.74102,0.002 -4.145174,-0.005 -5.342558,-0.0157 -1.197383,-0.0109 -3.779393,-0.0113 -5.73779,-0.002 -1.958396,0.01 -4.629417,0.01 -5.93559,-6.7e-4 -1.306185,-0.01 -7.494222,-0.0161 -13.751215,-0.0135 -6.256993,0.003 -12.756513,0.001 -14.44338,-0.004 -1.686857,-0.005 -5.546799,-0.004 -8.577639,0.004 -3.030839,0.007 -5.54203,-0.0169 -5.580422,-0.0528 -0.0384,-0.0358 -0.0607,-7.40818 -0.04956,-16.38296 0.01115,-8.97477 0.0013,-16.90872 -0.02194,-17.63099 l -0.04219,-1.31323 0.647601,0.13354 c 0.356183,0.0734 1.186251,0.26317 1.844601,0.42159 0.658346,0.15844 2.228989,0.5244 3.490315,0.81325 1.261318,0.28885 2.742097,0.63039 3.290598,0.75896 0.991716,0.23247 2.337744,0.54417 4.33775,1.00451 0.575848,0.13255 1.585808,0.37544 2.244356,0.53977 0.658559,0.16433 1.511157,0.36213 1.894679,0.43955 0.383522,0.0774 1.110246,0.23212 1.614937,0.34378 l 0.917615,0.20301 2.597254,-1.55792 c 1.42849,-0.85686 2.815905,-1.67259 3.083142,-1.81273 0.267236,-0.14015 0.616382,-0.34409 0.77587,-0.4532 0.562348,-0.38476 5.977545,-3.58082 6.072608,-3.58408 0.053,-0.002 1.609853,-0.91139 3.45971,-2.02128 1.849867,-1.10989 3.55937,-2.10061 3.798902,-2.20159 0.406926,-0.17156 1.468541,-0.13053 5.748704,0.22216 0.900294,0.0742 2.373431,0.19296 3.273617,0.26393 1.968945,0.15522 4.830318,0.39343 6.994285,0.58225 0.87316,0.0762 2.30686,0.16573 3.18599,0.19895 1.68843,0.0639 1.86253,0.007 5.2701,-1.70233 0.42791,-0.21471 1.52287,-0.73831 2.43325,-1.16353 0.91037,-0.42522 2.01477,-0.95816 2.4542,-1.18431 0.43944,-0.22614 0.86154,-0.41331 0.93799,-0.41594 0.0765,-0.003 0.59284,-0.23804 1.1475,-0.52315 0.55467,-0.2851 1.66578,-0.8234 2.46913,-1.19619 0.80336,-0.37279 1.89841,-0.89401 2.43344,-1.15824 0.53502,-0.26424 1.73728,-0.8336 2.67168,-1.26523 l 1.6989,-0.7848 5.68246,2.55747 c 3.12534,1.40661 7.66639,3.45322 10.09123,4.54803 2.42483,1.09481 4.77224,2.0433 5.21646,2.10773 1.32008,0.19149 4.32104,0.64513 5.28275,0.79857 0.49237,0.0786 1.70056,0.26005 2.68484,0.40331 0.98428,0.14326 2.14768,0.31688 2.58532,0.38582 0.43764,0.069 1.4219,0.21158 2.18725,0.31698 0.76535,0.1054 1.70546,0.25855 2.08913,0.34033 0.38367,0.0817 1.52529,0.26949 2.53693,0.41715 l 1.83935,0.26846 0.0439,1.30944 c 0.0241,0.72021 0.0357,8.83309 0.0258,18.02863 -0.01,9.19554 -6.6e-4,17.23053 0.0199,17.85552 l 0.038,1.13634 -2.2397,0.0768 c -1.23183,0.0422 -2.27787,0.045 -2.32455,0.007 z"
           id="path2" /></g></g><path
       style="fill:#87cdde;stroke:#000000;stroke-width:0.564926"
       d=""
       id="path3"
       transform="scale(0.26458333)" /><path
       style="fill:#87cdde;stroke:#000000;stroke-width:0.564926"
       d=""
       id="path4"
       transform="scale(0.26458333)" /><path
       style="fill:#87cdde;stroke:#000000;stroke-width:0.282463"
       d=""
       id="path5"
       transform="scale(0.26458333)" /><g
       id="g39"
       transform="matrix(0.51659369,0,0,0.51659369,67.229366,76.902109)"
       style="fill:#abc837"><path
         style="fill:#abc837;stroke:none;stroke-width:0.798926"
         d="m 250.48826,610.02679 c 0,-60.61369 0.0151,-60.47885 -7.53664,-67.30139 -2.30994,-2.0869 -5.39503,-4.24875 -6.85574,-4.80411 -1.49269,-0.56752 -17.90079,-1.00974 -37.46514,-1.00974 -19.92436,0 -34.8093,-0.40678 -34.8093,-0.95127 0,-1.69418 13.26357,-17.35185 20.73697,-24.48003 10.75218,-10.25551 17.51313,-14.96206 32.1496,-22.38052 16.32981,-8.27673 24.61718,-10.96056 40.05453,-12.97148 16.09616,-2.09675 26.37097,-1.97847 42.87215,0.49353 15.56871,2.33231 25.00629,5.6144 41.41496,14.40284 22.42948,12.01317 40.90701,30.28932 53.33816,52.75686 8.16372,14.75478 11.96954,25.37211 14.53861,40.55936 2.91765,17.24793 2.89644,27.81469 -0.0718,35.76292 -6.11027,16.36194 -31.06033,30.29827 -68.52881,38.27807 -19.36786,4.12485 -33.74294,5.35921 -62.41197,5.35921 h -27.42559 z"
         id="path32"
         transform="scale(0.26458333)" /><path
         style="fill:#abc837;stroke:none;stroke-width:0.798926"
         d="m 42.094518,790.43528 c -1.717973,-0.63442 -3.270482,-2.323 -3.963422,-4.31077 -1.612036,-4.62428 -1.59602,-224.3349 0.01669,-228.96113 0.872028,-2.5015 2.10478,-3.59163 5.020334,-4.43951 2.636502,-0.76674 33.028882,-1.02268 95.6453,-0.80547 l 91.78081,0.31838 2.02017,2.49514 c 1.96116,2.42225 2.02017,5.83851 2.02017,116.93597 0,111.09873 -0.059,114.5137 -2.02023,116.93597 l -2.02024,2.49514 -92.83766,0.18963 c -58.93886,0.12038 -93.868912,-0.1912 -95.661922,-0.85335 z M 203.94293,762.89153 c 2.70541,-2.90392 2.76131,-7.27307 0.13456,-10.51698 l -2.02044,-2.49514 H 136.34358 70.630115 l -2.550771,2.96545 c -3.124928,3.63294 -3.21208,5.94943 -0.360234,9.57497 l 2.190536,2.78481 h 65.939144 65.93915 z m 0,-30.65046 c 2.56903,-2.75753 2.77723,-6.89732 0.50971,-10.13466 l -1.64531,-2.349 h -66.92459 c -59.943517,0 -67.0704,0.17568 -68.322309,1.68413 -2.02635,2.44161 -1.718677,8.42519 0.562851,10.94625 1.936455,2.13976 2.770182,2.16639 67.812608,2.16639 h 65.85205 z m -0.43924,-39.38689 2.59425,-2.59424 v -53.95058 c 0,-52.54136 -0.0552,-54.00579 -2.11383,-56.0644 -2.06862,-2.06862 -3.52304,-2.11383 -68.00705,-2.11383 -65.646437,0 -65.900759,0.008 -67.906624,2.22479 -1.925051,2.12716 -2.013405,4.61261 -2.013405,56.6382 v 54.41342 l 2.495142,2.02043 c 2.396187,1.94033 5.070239,2.02045 67.426217,2.02045 h 64.93107 z"
         id="path33"
         transform="scale(0.26458333)" /><path
         style="fill:#abc837;stroke:none;stroke-width:0.798926"
         d="m 81.382262,636.78978 v -42.80496 h 54.430998 54.43099 v 42.80496 42.80495 H 135.81326 81.382262 Z m 74.522158,22.62917 c 7.21523,-2.69957 15.9221,-10.87315 19.60213,-18.40152 2.13294,-4.36344 2.5832,-6.8772 2.5832,-14.42159 0,-10.60394 -1.27233,-12.85079 -8.35891,-14.76118 -9.0499,-2.43965 -21.11034,0.89654 -28.99631,8.02103 l -4.33219,3.91388 -4.52219,-3.66318 c -8.62616,-6.98758 -17.49811,-9.84667 -26.95419,-8.68632 -7.194724,0.88285 -9.582043,2.98489 -10.770713,9.48362 -2.972879,16.25341 7.511263,33.33834 24.094533,39.26438 2.36158,0.84391 9.16318,1.38411 17.78806,1.41276 11.65235,0.0387 14.94166,-0.31923 19.86658,-2.16188 z"
         id="path34"
         transform="scale(0.26458333)" /><path
         style="fill:#abc837;stroke:none;stroke-width:0.798926"
         d="m 144.79701,643.72851 c 0,-5.86312 4.49851,-11.93612 11.09758,-14.98179 6.21815,-2.86986 7.26291,-2.64138 6.45242,1.41109 -1.04037,5.20185 -5.66455,11.07393 -10.60329,13.46473 -5.5373,2.68056 -6.94671,2.70206 -6.94671,0.10597 z"
         id="path35"
         transform="scale(0.26458333)" /><path
         style="fill:#abc837;stroke:none;stroke-width:0.798926"
         d="m 122.18365,644.676 c -3.5854,-1.07292 -8.65666,-5.63091 -10.77374,-9.68333 -1.74331,-3.33696 -1.97662,-8.24356 -0.39199,-8.24356 2.14854,0 8.98538,4.08014 11.79209,7.03736 2.39976,2.52845 6.13331,9.48303 6.13331,11.42466 0,0.79303 -3.15633,0.54316 -6.75967,-0.53513 z"
         id="path36"
         transform="scale(0.26458333)" /><path
         style="fill:#abc837;stroke:none;stroke-width:0.798926"
         d="m 410.47911,790.46291 c -8.58534,-1.08749 -18.34183,-6.53165 -26.09195,-14.55937 -8.76813,-9.08221 -13.89884,-19.12437 -16.03784,-31.39034 -1.98643,-11.39104 -1.9945,-15.41003 -0.0549,-27.35938 4.21487,-25.9672 25.15511,-46.27858 47.6007,-46.17117 4.06911,0.0195 9.47953,0.77613 12.02314,1.68146 7.91142,2.81586 7.52974,3.61251 7.52974,-15.71629 v -17.36234 l 2.78481,-2.19054 c 3.44783,-2.71206 4.08478,-2.71932 6.7274,-0.0767 1.94301,1.94301 2.11382,3.52304 2.11382,19.55288 0,19.41375 -0.38345,18.60949 7.52974,15.793 5.97288,-2.12589 18.14161,-2.13661 24.02981,-0.0212 6.16069,2.21333 15.88161,8.20762 19.28832,11.89392 5.2778,5.71092 11.87823,16.64472 14.52406,24.05954 3.6009,10.09132 4.37611,27.03151 1.73627,37.94174 -3.4102,14.09407 -11.41887,26.92456 -21.5832,34.57793 -9.04136,6.80782 -16.37294,9.54996 -25.61152,9.57915 -8.31329,0.0263 -9.50919,-0.26066 -19.02613,-4.56493 l -7.0395,-3.18379 -6.81337,3.3542 c -7.668,3.77496 -15.62356,5.17628 -23.62935,4.16221 z"
         id="path37"
         transform="scale(0.26458333)" /><path
         style="fill:#abc837;stroke:none;stroke-width:0.798926"
         d="m 432.80567,486.31237 c -21.85918,-5.39387 -39.35605,-19.8885 -47.36574,-39.23839 -5.7304,-13.84356 -7.23927,-27.31323 -4.50462,-40.21279 5.04523,-23.79882 20.33174,-41.6282 43.79465,-51.07981 7.6136,-3.06701 8.89216,-3.25453 22.34402,-3.27711 13.12718,-0.022 14.92862,0.21897 22.52432,3.01346 20.5608,7.56441 35.07032,22.04898 42.75652,42.68298 3.57658,9.60151 4.46337,27.22179 1.86996,37.15573 -2.15067,8.23805 -7.81146,19.71895 -13.32015,27.01515 -14.86093,19.68316 -43.93327,29.90379 -68.09896,23.94078 z m 20.60979,-26.55544 c 1.91144,-1.91143 2.11382,-3.52304 2.11382,-16.83262 V 428.2055 l 15.42104,-0.3422 c 14.73085,-0.32688 15.51136,-0.45387 17.43906,-2.83734 2.74488,-3.39386 2.53485,-7.12478 -0.57623,-10.23585 -2.5081,-2.50811 -3.0871,-2.59424 -17.43905,-2.59424 h -14.84482 v -15.24852 -15.24852 l -2.88983,-2.27314 c -2.11977,-1.66742 -3.7354,-2.10402 -6.06309,-1.63849 -5.90951,1.18191 -6.34056,2.40923 -6.71451,19.11819 l -0.3422,15.29048 h -14.7188 c -13.30959,0 -14.92119,0.20238 -16.83263,2.11383 -2.80335,2.80334 -2.80335,8.82269 0,11.62603 1.91251,1.91251 3.52304,2.11383 16.9106,2.11383 h 14.79678 v 14.12578 c 0,12.69031 0.2226,14.40879 2.19053,16.9106 2.74479,3.48944 8.4022,3.81812 11.54933,0.67099 z"
         id="path38"
         transform="scale(0.26458333)" /><path
         style="fill:#abc837;stroke:none;stroke-width:0.798926"
         d="m 263.94565,434.8518 c -21.01613,-5.09227 -39.3162,-21.51205 -45.33439,-40.67637 -3.73974,-11.9088 -3.55244,-29.05261 0.44397,-40.6382 9.1183,-26.43395 37.23986,-43.82819 65.41704,-40.4629 22.0799,2.63708 43.07254,19.52602 50.29465,40.4629 3.99641,11.58559 4.1837,28.7294 0.44396,40.6382 -8.97557,28.5818 -42.4134,47.66725 -71.26523,40.67637 z"
         id="path39"
         transform="scale(0.26458333)" /></g></g></svg>
