<?xml version="1.0" encoding="UTF-8" standalone="no"?>
<!-- Created with Inkscape (http://www.inkscape.org/) -->

<svg
   width="210mm"
   height="297mm"
   viewBox="0 0 210 297"
   version="1.1"
   id="svg1"
   xml:space="preserve"
   inkscape:version="1.3 (0e150ed6c4, 2023-07-21)"
   sodipodi:docname="odonto_index.svg"
   inkscape:export-filename="odonto_index.png"
   inkscape:export-xdpi="96"
   inkscape:export-ydpi="96"
   xmlns:inkscape="http://www.inkscape.org/namespaces/inkscape"
   xmlns:sodipodi="http://sodipodi.sourceforge.net/DTD/sodipodi-0.dtd"
   xmlns="http://www.w3.org/2000/svg"
   xmlns:svg="http://www.w3.org/2000/svg"><sodipodi:namedview
     id="namedview1"
     pagecolor="#505050"
     bordercolor="#eeeeee"
     borderopacity="1"
     inkscape:showpageshadow="0"
     inkscape:pageopacity="0"
     inkscape:pagecheckerboard="0"
     inkscape:deskcolor="#505050"
     inkscape:document-units="mm"
     inkscape:zoom="0.94615212"
     inkscape:cx="201.34183"
     inkscape:cy="586.05798"
     inkscape:window-width="1920"
     inkscape:window-height="986"
     inkscape:window-x="-11"
     inkscape:window-y="-11"
     inkscape:window-maximized="1"
     inkscape:current-layer="layer1" /><defs
     id="defs1" /><g
     inkscape:label="Layer 1"
     inkscape:groupmode="layer"
     id="layer1"><g
       id="g28"
       transform="rotate(0.22892285,104.9725,131.91874)"
       style="fill:#aaccff"><path
         style="fill:#aaccff;stroke:none;stroke-width:0.14947"
         d="m 63.433048,154.50168 c -0.112225,-0.0993 -0.651971,-0.26091 -1.199439,-0.35919 -0.547465,-0.0983 -1.489085,-0.29559 -2.092491,-0.43843 -0.603405,-0.14285 -1.590654,-0.37258 -2.19389,-0.5105 -0.603236,-0.13793 -1.635604,-0.38523 -2.294156,-0.54956 -0.65855,-0.16433 -1.511143,-0.36175 -1.894649,-0.43871 -0.383505,-0.077 -1.235906,-0.26879 -1.894222,-0.42629 -0.658315,-0.15751 -1.645104,-0.37371 -2.192858,-0.48044 -0.547757,-0.10675 -1.095496,-0.25385 -1.217202,-0.32689 -0.121703,-0.0731 -0.615032,-0.17924 -1.096282,-0.23598 -0.481253,-0.0567 -0.966222,-0.16683 -1.077711,-0.24467 -0.11149,-0.0778 -0.573738,-0.18968 -1.027221,-0.24854 l -0.824513,-0.10702 0.04192,-1.12508 c 0.02306,-0.6188 0.03673,-9.36053 0.03037,-19.42606 -0.0063,-10.06554 0.02126,-18.33973 0.06135,-18.3871 0.0709,-0.0838 113.972306,-0.0755 118.659786,0.009 l 2.34906,0.0422 -0.0635,1.50456 c -0.0349,0.8275 -0.0563,8.87185 -0.0474,17.87631 l 0.0161,16.37176 -0.73467,0.0252 c -0.40407,0.0138 -0.78519,-0.0506 -0.84693,-0.14324 -0.0617,-0.0926 -0.53812,-0.20041 -1.05862,-0.23951 -1.4707,-0.11046 -3.88445,-0.43985 -4.32768,-0.59056 -0.2202,-0.0749 -1.07115,-0.22419 -1.89098,-0.3318 -1.83125,-0.24036 -2.79539,-0.38089 -4.97117,-0.72457 -1.73168,-0.27354 -2.51409,-0.3904 -4.77292,-0.71291 -1.39596,-0.19931 -1.8633,-0.39016 -10.35269,-4.2277 -3.10512,-1.40364 -5.74122,-2.5488 -5.85799,-2.54479 -0.11677,0.004 -0.24425,-0.0584 -0.28327,-0.13868 -0.039,-0.0803 -1.1666,-0.63379 -2.50571,-1.23004 -2.73552,-1.21803 -2.79603,-1.2203 -4.86071,-0.18258 -0.67891,0.34121 -2.00304,0.97551 -2.94253,1.40955 -0.93949,0.43404 -1.94656,0.92412 -2.23795,1.08907 -0.29138,0.16496 -0.60207,0.30295 -0.6904,0.30665 -0.0883,0.004 -0.61462,0.23479 -1.1695,0.51353 -0.55489,0.27874 -1.62217,0.797 -2.37174,1.15168 -0.74957,0.35468 -1.86893,0.89286 -2.48746,1.19595 -0.61854,0.30309 -1.17894,0.55293 -1.24533,0.55521 -0.12157,0.004 -0.58462,0.23211 -3.07998,1.51613 -1.65387,0.85103 -1.74242,0.85511 -7.704083,0.35473 -2.510062,-0.21068 -5.322725,-0.44694 -6.250367,-0.52503 -3.686135,-0.3103 -4.930229,-0.39731 -6.564467,-0.45908 l -1.703538,-0.0644 -2.309445,1.31782 c -1.270195,0.7248 -2.963634,1.71326 -3.763197,2.19658 -0.799563,0.48332 -1.58511,0.94272 -1.745657,1.02089 -0.160547,0.0782 -0.814884,0.46924 -1.454084,0.86904 -0.6392,0.39981 -1.356845,0.82176 -1.594766,0.93765 -0.237922,0.1159 -1.110744,0.62654 -1.939604,1.13475 -0.828859,0.50822 -2.555015,1.51895 -3.8359,2.24608 -1.280888,0.72712 -2.381664,1.40903 -2.446172,1.51535 -0.164476,0.2711 -1.796299,0.47878 -2.043538,0.26008 z"
         id="path1" /><g
         id="g27"
         style="fill:#aaccff"><path
           style="fill:#aaccff;stroke:none;stroke-width:0.14947"
           d="m 161.01712,185.06772 c -0.0467,-0.0388 -2.35457,-0.0515 -5.12864,-0.028 -2.77408,0.0235 -5.89009,0.0283 -6.92448,0.0106 -1.03439,-0.0176 -7.08902,-0.0275 -13.45473,-0.0218 -6.36572,0.006 -12.82068,0.005 -14.34436,-0.002 -2.69803,-0.0117 -10.82722,-0.0137 -17.21337,-0.006 -1.74102,0.002 -4.145174,-0.005 -5.342558,-0.0157 -1.197383,-0.0109 -3.779393,-0.0113 -5.73779,-0.002 -1.958396,0.01 -4.629417,0.01 -5.93559,-6.7e-4 -1.306185,-0.01 -7.494222,-0.0161 -13.751215,-0.0135 -6.256993,0.003 -12.756513,0.001 -14.44338,-0.004 -1.686857,-0.005 -5.546799,-0.004 -8.577639,0.004 -3.030839,0.007 -5.54203,-0.0169 -5.580422,-0.0528 -0.0384,-0.0358 -0.0607,-7.40818 -0.04956,-16.38296 0.01115,-8.97477 0.0013,-16.90872 -0.02194,-17.63099 l -0.04219,-1.31323 0.647601,0.13354 c 0.356183,0.0734 1.186251,0.26317 1.844601,0.42159 0.658346,0.15844 2.228989,0.5244 3.490315,0.81325 1.261318,0.28885 2.742097,0.63039 3.290598,0.75896 0.991716,0.23247 2.337744,0.54417 4.33775,1.00451 0.575848,0.13255 1.585808,0.37544 2.244356,0.53977 0.658559,0.16433 1.511157,0.36213 1.894679,0.43955 0.383522,0.0774 1.110246,0.23212 1.614937,0.34378 l 0.917615,0.20301 2.597254,-1.55792 c 1.42849,-0.85686 2.815905,-1.67259 3.083142,-1.81273 0.267236,-0.14015 0.616382,-0.34409 0.77587,-0.4532 0.562348,-0.38476 5.977545,-3.58082 6.072608,-3.58408 0.053,-0.002 1.609853,-0.91139 3.45971,-2.02128 1.849867,-1.10989 3.55937,-2.10061 3.798902,-2.20159 0.406926,-0.17156 1.468541,-0.13053 5.748704,0.22216 0.900294,0.0742 2.373431,0.19296 3.273617,0.26393 1.968945,0.15522 4.830318,0.39343 6.994285,0.58225 0.87316,0.0762 2.30686,0.16573 3.18599,0.19895 1.68843,0.0639 1.86253,0.007 5.2701,-1.70233 0.42791,-0.21471 1.52287,-0.73831 2.43325,-1.16353 0.91037,-0.42522 2.01477,-0.95816 2.4542,-1.18431 0.43944,-0.22614 0.86154,-0.41331 0.93799,-0.41594 0.0765,-0.003 0.59284,-0.23804 1.1475,-0.52315 0.55467,-0.2851 1.66578,-0.8234 2.46913,-1.19619 0.80336,-0.37279 1.89841,-0.89401 2.43344,-1.15824 0.53502,-0.26424 1.73728,-0.8336 2.67168,-1.26523 l 1.6989,-0.7848 5.68246,2.55747 c 3.12534,1.40661 7.66639,3.45322 10.09123,4.54803 2.42483,1.09481 4.77224,2.0433 5.21646,2.10773 1.32008,0.19149 4.32104,0.64513 5.28275,0.79857 0.49237,0.0786 1.70056,0.26005 2.68484,0.40331 0.98428,0.14326 2.14768,0.31688 2.58532,0.38582 0.43764,0.069 1.4219,0.21158 2.18725,0.31698 0.76535,0.1054 1.70546,0.25855 2.08913,0.34033 0.38367,0.0817 1.52529,0.26949 2.53693,0.41715 l 1.83935,0.26846 0.0439,1.30944 c 0.0241,0.72021 0.0357,8.83309 0.0258,18.02863 -0.01,9.19554 -6.6e-4,17.23053 0.0199,17.85552 l 0.038,1.13634 -2.2397,0.0768 c -1.23183,0.0422 -2.27787,0.045 -2.32455,0.007 z"
           id="path2" /></g></g><path
       style="fill:#87cdde;stroke:#000000;stroke-width:0.564926"
       d=""
       id="path3"
       transform="scale(0.26458333)" /><path
       style="fill:#87cdde;stroke:#000000;stroke-width:0.564926"
       d=""
       id="path4"
       transform="scale(0.26458333)" /><path
       style="fill:#87cdde;stroke:#000000;stroke-width:0.282463"
       d=""
       id="path5"
       transform="scale(0.26458333)" /><g
       id="g32"
       transform="matrix(0.61138169,0,0,0.61138169,79.014384,65.741738)"><path
         style="fill:#5f8dd3;stroke:none;stroke-width:0.798926"
         d="M 110.37792,532.47852 C 86.53995,530.06387 59.833619,511.0442 44.625805,485.65129 34.015187,467.93444 29.706573,455.58792 25.910355,432.02135 l -0.637098,-3.95505 17.749606,-8.52841 c 20.156001,-9.68465 26.831856,-12.12598 35.395288,-12.94391 l 6.019645,-0.57496 1.78774,5.38238 c 2.216709,6.67388 9.232698,13.79577 17.351884,17.6138 8.09547,3.80687 21.33086,3.88504 28.89117,0.17063 7.12171,-3.49891 13.96327,-10.40374 17.10245,-17.2606 l 2.65868,-5.80731 5.00317,0.48405 c 8.21018,0.79433 15.82661,3.32809 27.6445,9.19649 6.14893,3.05337 14.44618,6.91629 18.43833,8.58427 l 7.25846,3.03268 -0.65774,6.41985 c -1.38387,13.50747 -10.09585,38.73503 -17.31306,50.13404 -12.22008,19.30065 -25.90881,32.44421 -42.43321,40.74326 -14.03939,7.051 -25.25036,9.23897 -39.79225,7.76596 z"
         id="path28"
         transform="scale(0.26458333)" /><path
         style="fill:#5f8dd3;stroke:none;stroke-width:0.798926"
         d="m 26.430217,404.60448 c 0.0041,-0.7658 0.975996,-5.43296 2.15983,-10.37146 4.91754,-20.5141 18.568737,-39.20432 36.51253,-49.99028 25.24236,-15.17311 56.300693,-18.73978 84.752513,-9.73281 21.48892,6.80274 42.37208,24.21169 50.91713,42.44634 3.92701,8.38002 7.20921,17.90473 8.98573,26.07595 0.59447,2.73434 0.44275,2.92706 -1.76911,2.2471 -1.33065,-0.40906 -8.20094,-3.54651 -15.2673,-6.97212 -14.07279,-6.82216 -26.13065,-10.42032 -34.91975,-10.42032 h -5.68151 l -2.04276,-4.76556 c -2.85851,-6.66863 -10.64418,-14.61478 -17.20908,-17.56377 -4.4563,-2.00181 -7.33021,-2.47663 -15.0227,-2.482 -8.39359,-0.006 -10.19581,0.34687 -15.32523,2.99948 -7.947024,4.10969 -13.186702,9.42781 -15.91731,16.1556 l -2.295708,5.65625 h -6.049655 c -9.243364,0 -20.672761,3.42666 -34.517267,10.34865 -14.754939,7.37719 -17.320735,8.32122 -17.310353,6.36895 z"
         id="path29"
         transform="scale(0.26458333)" /><path
         style="fill:#5f8dd3;stroke:none;stroke-width:0.798926"
         d="m -41.035353,735.27875 c -2.297122,-2.44518 -2.298059,-2.46805 -2.298059,-56.06092 0,-58.91434 0.257033,-61.98349 6.510286,-77.73733 6.972639,-17.56619 19.289086,-33.1849 34.3279786,-43.53194 l 4.502889,-3.09806 3.7895407,3.32726 c 6.3523737,5.57746 17.5618977,27.11463 17.4114697,33.45314 -0.02679,1.12897 -2.008523,2.74645 -5.193992,4.2393 -14.2844687,6.69436 -21.1653622,19.82169 -21.1716192,40.39112 -0.00441,14.50854 2.92176381,17.96751 15.1999292,17.96751 8.282525,0 11.973224,-2.46907 12.960388,-8.67049 0.538381,-3.38214 0.185305,-4.3522 -2.596663,-7.13416 -1.770872,-1.77088 -3.969769,-3.21977 -4.886438,-3.21977 -2.365443,0 -2.16794,-7.77786 0.337586,-13.29448 2.227269,-4.90396 5.991673,-8.23633 11.27319,-9.97939 6.720584,-2.21799 15.031525,2.2556 18.539498,9.97939 2.505526,5.51662 2.70303,13.29448 0.337587,13.29448 -0.916669,0 -3.056917,1.39024 -4.756107,3.08943 -4.153675,4.15368 -4.153675,8.69188 0,12.84555 2.838831,2.83884 3.70276,3.08944 10.650426,3.08944 6.947667,0 7.811598,-0.2506 10.650423,-3.08944 3.082326,-3.08231 3.089439,-3.11961 3.089439,-16.19031 0,-16.96427 -1.461033,-22.01262 -8.645715,-29.87381 -2.985734,-3.26687 -7.723329,-7.10259 -10.527989,-8.52381 -3.77219,-1.91152 -5.252387,-3.33825 -5.687264,-5.48186 -2.857773,-14.08658 -10.433474,-31.53524 -17.045527,-39.25994 -4.47206,-5.22459 -4.059107,-5.422 13.188586,-6.30454 l 13.030134,-0.66673 13.392679,12.56738 c 7.365972,6.91206 18.103506,16.89989 23.861195,22.19516 5.757679,5.29528 13.509912,12.5547 17.227162,16.13204 7.13839,6.86972 10.24251,8.35869 14.24324,6.83215 1.34827,-0.51445 16.18293,-13.70228 32.96591,-29.3063 27.92347,-25.96191 30.79528,-28.34203 33.8212,-28.03056 1.81868,0.1872 3.40994,0.43786 3.53615,0.55701 0.66062,0.62372 3.37276,28.83944 3.51549,36.57351 0.21634,11.72157 0.34579,11.10834 -2.63129,12.46479 -1.42205,0.64793 -4.48516,2.89425 -6.80694,4.99183 -11.42878,10.32522 -9.5692,32.77564 3.43467,41.46625 4.79074,3.2017 5.74887,3.43497 14.1086,3.43497 10.63778,0 14.28164,-1.42697 20.29073,-7.94608 5.08414,-5.51564 8.07514,-14.41506 7.03367,-20.92801 -1.03844,-6.49408 -5.83599,-14.40311 -11.01937,-18.16604 l -4.60928,-3.34615 -0.42065,-8.89229 c -0.55806,-11.79731 -2.49378,-33.6156 -3.26393,-36.78921 -0.56715,-2.33709 -0.3798,-2.47488 2.44527,-1.79825 1.68271,0.40302 5.02018,1.46454 7.41662,2.35892 l 4.35713,1.62616 0.57007,17.0827 c 0.64888,19.44431 2.46709,28.37461 9.04117,44.40636 6.12067,14.92601 16.5773,28.5315 24.1372,31.40578 1.42653,0.54236 6.6054,0.98611 11.50863,0.98611 h 8.91495 v 43.71933 c 0,42.62931 -0.0546,43.78878 -2.19054,46.50415 l -2.19053,2.78482 H 117.95326 -38.737293 Z"
         id="path30"
         transform="scale(0.26458333)" /><path
         style="fill:#5f8dd3;stroke:none;stroke-width:0.798926"
         d="m 106.08942,568.27152 c -6.406877,-5.9126 -14.85057,-13.53843 -18.76376,-16.94629 -3.91319,-3.40786 -6.917472,-6.39353 -6.676182,-6.63482 0.24129,-0.24129 4.904275,1.06866 10.362188,2.91099 17.395074,5.87176 41.011784,5.37954 58.371334,-1.21657 2.93078,-1.1136 5.48044,-1.87299 5.66591,-1.68752 0.30147,0.30148 -27.71792,26.25266 -34.57047,32.0187 l -2.74015,2.30569 z"
         id="path31"
         transform="scale(0.26458333)" /><path
         style="fill:#5f8dd3;stroke:none;stroke-width:0.798926"
         d="m 262.1339,621.76442 c -5.38412,-6.11668 -10.6738,-16.92485 -14.11303,-28.83651 -3.24766,-11.24816 -4.02531,-18.47611 -4.2702,-39.68969 l -0.19458,-16.85513 -4.39253,-9.2487 c -11.93459,-25.12887 -11.54683,-46.79344 1.07037,-59.80206 7.31009,-7.53687 11.08994,-8.95369 22.33342,-8.37135 7.79696,0.40384 11.40609,1.21543 19.32421,4.34546 12.78344,5.0533 17.41108,5.05423 30.2017,0.006 10.99913,-4.3411 24.78891,-5.91294 31.74215,-3.61816 5.50644,1.81729 15.83089,13.28515 18.58313,20.64117 4.18059,11.17364 2.32016,26.76365 -4.91772,41.20939 -6.60882,13.19023 -6.851,14.36908 -7.1736,34.91951 -0.49963,31.82747 -4.52542,47.05916 -16.86997,63.82805 -5.50498,7.47799 -8.87563,8.43101 -13.27108,3.75227 -2.36357,-2.5159 -2.58963,-3.78638 -3.24404,-18.23174 -0.82991,-18.31916 -2.66032,-27.77456 -7.22343,-37.31438 -3.72521,-7.78806 -6.5442,-9.93584 -12.82481,-9.77115 -5.48111,0.14372 -8.3684,2.24666 -11.8386,8.62256 -4.88311,8.97188 -7.22323,20.11601 -7.8582,37.42223 -0.461,12.56499 -0.94514,16.15995 -2.52644,18.7602 -3.04891,5.01353 -7.06606,4.44699 -12.53675,-1.76805 z"
         id="path32"
         transform="scale(0.26458333)" /></g></g></svg>
